<svg xmlns="http://www.w3.org/2000/svg" viewBox="0 0 453.97 307.3"><defs><style>.cls-1{fill:#ccabda;}.cls-2{fill:#3b3054;}.cls-3{fill:#86e3ce;}.cls-4{fill:#3b0954;}.cls-5{fill:#a87031;}.cls-6{fill:#a76f30;}.cls-7{fill:#ab9d80;}.cls-8{fill:#964d4b;}.cls-9{fill:#fffcfc;}.cls-10{fill:#fffbfb;}.cls-11{fill:#f5fbfb;}.cls-12{fill:#fff;}.cls-13{fill:#86e2ce;}.cls-14,.cls-15{fill:none;stroke:#3b3054;stroke-miterlimit:10;}.cls-14{stroke-linecap:round;stroke-width:6px;}.cls-15{stroke-width:5px;}</style></defs><g id="Layer_2" data-name="Layer 2"><g id="Layer_1-2" data-name="Layer 1"><path class="cls-1" d="M404,185.29c.8,2.88,2,5.64,2.56,8.58a51.16,51.16,0,0,1-2.45,28,3.46,3.46,0,0,0,1.06,4.38c12.35,11.76,24.6,23.62,36.94,35.38a3.58,3.58,0,0,1,1.16,4.22c-1.9,6.31-3.55,12.69-5.31,19-.52,1.84-.64,1.89-2.48,1.48-5.39-1.2-8.32-4.89-8.31-10.47a12,12,0,0,1,.08-1.8,1.36,1.36,0,0,0-.85-1.65,14.78,14.78,0,0,1-1.33-.77L387.85,250.5c-2.53-1.44-1.93-1.37-3.94.25a73.25,73.25,0,0,1-7.42,5.1,8.14,8.14,0,0,0,2.22,1.85q13.73,10,27.5,19.85a3,3,0,0,1,1.46,3.36c-1.14,6.75-2.17,13.52-3.2,20.29-.18,1.22-.75,1.48-1.9,1.43-5.61-.25-9.66-4.07-9.79-9.86,0-2.15-.91-2.89-2.65-3.63q-24.9-10.61-49.74-21.36a7.62,7.62,0,0,0-4-.72c-13.41,1.49-26.86,1.31-40.31,1.08-9.94-.16-19.88-.29-29.82-.05-7.63.19-15.21,1-22.79,1.83-12.78,1.38-25.56,2.67-38.43,3a171.8,171.8,0,0,1-29.47-1.56,3.84,3.84,0,0,0-3,1l-27.34,19.19c-7.15,5-14.32,10-21.43,15.09a2.75,2.75,0,0,1-3.41.21c-5.92-3.26-11.92-6.38-17.88-9.57-1.75-.94-1.73-1-.94-2.72,2.35-5.2,7-7.39,12.73-5.67A3,3,0,0,0,118,287.8c7.62-8.48,15.32-16.89,23-25.32.34-.37.63-.78.93-1.15a4.14,4.14,0,0,0-.36-.46c-1.88-1.69-3.62-1.26-5.74-.15-15.72,8.15-31.52,16.15-47.27,24.26a3.24,3.24,0,0,1-3.91-.25c-5.43-3.88-11-7.6-16.48-11.4-1.61-1.11-1.6-1.13-.6-2.78,2.93-4.86,7.69-6.54,13.05-4.29a3.37,3.37,0,0,0,4.22-.73c9.48-8.43,19-16.76,28.58-25.12l1.73-1.54a.86.86,0,0,0,.14-1.33c-.36-.48-.71-1-1.05-1.46-8-11.33-13.86-23.78-18.93-36.64.58-1.21,1.73-.89,2.7-1,18.46-1.37,35.32-7.08,50.14-18.38a79.62,79.62,0,0,0,16.73-17.26c.84-1.18,1.66-2.51,3.5-1.91,8.84,1.4,17.75,1.35,26.66,1.48,13.8.21,27.58-.21,41.35-.92,12.92-.66,25.83-1.56,38.74-2.3,6.84-.39,13.7-.59,20.53-1.16,7.85-.64,15.71-1.28,23.57-1.83,13.78-1,27.56-1.25,41.28.83a73.07,73.07,0,0,1,22,6.59,13.68,13.68,0,0,0,1.43.56c.06,1-.81.95-1.4,1.15-2.1.71-4.23,1.34-6.36,2-1.53.47-1.77,1.14-.57,2.27,1,.94,1.94,1.93,2.9,2.9,3.81,3.81,7.64,7.59,11.42,11.43a6.61,6.61,0,0,0,6,2C398.63,185.62,401.29,184.7,404,185.29Z"/><path class="cls-1" d="M90.37,187.48c-1.63-4.13-3.3-8.25-4.87-12.41a2.38,2.38,0,0,0-2.45-1.69c-13.57-1.14-27.17-1.4-40.77-2a74.32,74.32,0,0,1-22.08-4.25,19.56,19.56,0,0,1-9.55-6.6c1.28-1.49,3.57-2.12,3.71-4.58.21-3.77.26-7.51-.91-11.15a2.26,2.26,0,0,0-1.91-1.51c-.74-.15-1.56-.11-2.09-.81,5.88-1.38,11.29-4.14,17.12-5.74s11.22-4.11,16.72-6.46,11.07-5,16.5-7.67,10.54-5.68,15.67-8.76a116.22,116.22,0,0,1,15.15-8,45.22,45.22,0,0,1,22.82-3.5c1,.11,2,.06,3.08.08,5,.59,9.77,2,13.5,5.71-.5,1.45-1.77,1.11-2.8,1.13-2.91.08-5.82,0-8.73,0-1.78,0-2.54.48-1.89,2.44,2.37,7.06,5,14,7.27,21.12a9.15,9.15,0,0,0,3.55,4.29c4.25,3.19,8.41,6.48,12.67,9.66a31.78,31.78,0,0,0,10.47,4.73,16.91,16.91,0,0,1,2.93.93,2.83,2.83,0,0,1,1.32,1.49c.24,1.2-.57,1.9-1.26,2.64-16.39,17.67-36.77,27.7-60.4,31.49C92.17,188.22,91.09,188.64,90.37,187.48Z"/><path class="cls-2" d="M404,185.29a26.31,26.31,0,0,1-5.5,1,24.44,24.44,0,0,0-3.28.39,5.14,5.14,0,0,1-4.93-1.44q-8-8-15.93-16c-1.42-1.42-1.39-1.51.66-2.19,3-1,5.94-1.93,8.91-2.89,5.94-2.4,11.92-4.69,17.61-7.68,8.48-4.45,16.33-9.72,22.7-17A44.14,44.14,0,0,0,435.08,118a30.92,30.92,0,0,0-1.45-15.43c-1.58-4.72-3.78-9.17-5.68-13.76a5.32,5.32,0,0,1-.8-2.79c7.16.48,13.26,3.1,18,8.6a34.71,34.71,0,0,1,7.44,16.15,62.62,62.62,0,0,1-2.25,34.41c-3.1,8.52-8.49,15.6-14.92,21.89C426.49,175.78,416.25,182.25,404,185.29Z"/><path class="cls-2" d="M153.69,152.94c-7.12-1.17-13.19-4.46-18.65-9.05q-3.63-3-7.49-5.79a12.68,12.68,0,0,1-5-6.85c-2.05-6.6-4.41-13.11-6.64-19.66-.17-.48-.3-1-.49-1.46-.31-.77.14-1.07.75-1.32a5.18,5.18,0,0,1,2-.2c3.09,0,6.17,0,9.25,0,.82,0,1.74.3,2.41-.48,2.34-.55,4.58.26,6.83.56a121.92,121.92,0,0,1,16.54,3.7,63.56,63.56,0,0,0,27.71,1.49c6.17-1,12.42-1.48,18.66-.24,1.16.23,2.41.25,3.33,1.17.58.76,1.51.73,2.29,1a55.42,55.42,0,0,1,11.33,4.74,21.36,21.36,0,0,1,5.61,4.44c2.84,3.32,3,6.74.5,10.33a21.8,21.8,0,0,1-3.89,4.08,69.36,69.36,0,0,1-29.4,14.49c-9.74,2.31-19.54,2-29.33.27a6.3,6.3,0,0,0-2-.17c-1,.68-1.85.08-2.76-.17C154.72,153.51,154.21,153.22,153.69,152.94Z"/><path class="cls-3" d="M155.35,153.34,158,154l10.38,7a2.64,2.64,0,0,0-2.31,1.32,81.13,81.13,0,0,1-26.59,24.48A88.58,88.58,0,0,1,110,197.59a95.29,95.29,0,0,1-13.48,1.56,6.09,6.09,0,0,0-1.23.29c-2-.07-2.82-1.22-3.36-3a62.41,62.41,0,0,0-2.68-7.13c-.63-1.4.21-1.54,1.1-1.83,2.77.38,5.41-.46,8-1a104.75,104.75,0,0,0,25.64-8.71A97.88,97.88,0,0,0,154,155.21a1.65,1.65,0,0,0,.53-1.12,2.51,2.51,0,0,0,0-.27.9.9,0,0,1,.34-.43A1.38,1.38,0,0,1,155.35,153.34Z"/><path class="cls-4" d="M202.92,114.79c-1.65.23-3.22-.39-4.81-.61a59.16,59.16,0,0,0-12.48-.06c-4,.27-7.95.91-11.94,1.28-8.34.77-16.21-1.14-24.12-3.21a90.87,90.87,0,0,0-15.77-3.09,13.25,13.25,0,0,1-4-1,36.18,36.18,0,0,0-12.77-5.24c-.21,0-.38-.3-.57-.46a32.61,32.61,0,0,1,13.72-.71c5.92.83,11.78,2,17.68,3a89.24,89.24,0,0,0,31.14,0c3.52-.66,7.1-1,10.67-1.44a18.82,18.82,0,0,1,9.06,1.2C203.51,106.35,205,110.05,202.92,114.79Z"/><path class="cls-2" d="M9.45,142.51c.34,0,.68.08,1,.09,3.12.05,3.67.68,4.22,3.81a44.43,44.43,0,0,1,.46,8.14c0,3.88-.79,4.89-4.5,6-.84-.15-1.68-.31-2.52-.45a10.16,10.16,0,0,1-7-4.74,7,7,0,0,1,.39-8.16A11.54,11.54,0,0,1,9.45,142.51Z"/><path class="cls-5" d="M156.64,253.86a9.9,9.9,0,0,1-3.19,6.82,4.06,4.06,0,0,1-2.75,1.18c-2,0-3-1.11-2.78-3.06a9.68,9.68,0,0,1,.51-2c.82-2.32,1.64-4.65,2.51-7,.73-2,1.82-2.29,3.51-1.12S156.58,251.73,156.64,253.86Z"/><path class="cls-5" d="M117.49,240.49a14.21,14.21,0,0,1,2-5.77,3,3,0,0,1,2.8-1.42c1.2.07,1.89,1,2.28,2.15a7.11,7.11,0,0,1-3.7,8.56,2.41,2.41,0,0,1-3.28-1.79A10.45,10.45,0,0,1,117.49,240.49Z"/><path class="cls-2" d="M91.34,133c0,3.17-1.63,5-4.51,4.94a4.8,4.8,0,0,1-4.76-5A4.86,4.86,0,0,1,87,128.15C89.51,128.18,91.33,130.19,91.34,133Z"/><path class="cls-6" d="M94.88,119.21a3.09,3.09,0,0,1-4,3.06,5.89,5.89,0,0,1-4.24-3.36c-.49-1.15-.83-2.25,0-3.36a4.14,4.14,0,0,1,3.56-1.66C92.66,114,94.94,116.74,94.88,119.21Z"/><path class="cls-7" d="M153.69,152.94a1.72,1.72,0,0,1,1.66.4.25.25,0,0,1-.23.13.9.9,0,0,0-.5.4l-.11.22A2,2,0,0,1,153.69,152.94Z"/><path class="cls-8" d="M130.27,121.34c4.85-1.71,9.16-.8,13.44.57,3.9,1.24,7.72,2.74,11.73,3.67A82.87,82.87,0,0,0,176,127.72c5.47-.12,10.9-.67,16.36-1a22.54,22.54,0,0,1,9.32,1.24c4.31,1.68,5.12,5.72,1.7,8.85a20.81,20.81,0,0,1-6.78,4.09,56.3,56.3,0,0,1-19.79,3.68c-4.11,0-8.24.18-12.34-.08-5.18-.33-10.39-.63-15.38-2.37a17.56,17.56,0,0,1-9.34-6.83C136.72,130.73,133.56,126.18,130.27,121.34Z"/><path class="cls-9" d="M100.49,188.73a3.11,3.11,0,0,1,3.06,3.1,3.26,3.26,0,0,1-3.11,3.12,3.09,3.09,0,0,1-3.1-3.31A2.86,2.86,0,0,1,100.49,188.73Z"/><path class="cls-9" d="M155,167.78a3.08,3.08,0,0,1-3.21-2.95,3.11,3.11,0,0,1,2.92-3.25,3.2,3.2,0,0,1,3.37,3.09A3.14,3.14,0,0,1,155,167.78Z"/><path class="cls-9" d="M138,177.41a3.05,3.05,0,0,1,3.19,2.94,3.19,3.19,0,0,1-3.17,3.29,3.12,3.12,0,0,1-3-3.14A3,3,0,0,1,138,177.41Z"/><path class="cls-10" d="M121.81,188.15a3.11,3.11,0,0,1-3,3.12,3.29,3.29,0,0,1-3.2-3.31,3.24,3.24,0,0,1,3.25-3A3,3,0,0,1,121.81,188.15Z"/><path class="cls-11" d="M154.62,153.87c0-.37.23-.4.5-.4C155.1,153.79,154.93,153.91,154.62,153.87Z"/><path class="cls-12" d="M51.87,161.85c10.93-2,21.67-4.52,33.07-6.84C80.08,162.06,74,166.14,66,166.68,59.17,167.14,53.78,165.14,51.87,161.85Z"/><circle class="cls-13" cx="358.6" cy="60.54" r="57.54"/><path class="cls-14" d="M415.12,49.67a57.54,57.54,0,1,0-2.76,31.42"/><path class="cls-2" d="M414.81,48.23c-4.12-3.44-11.77-4.57-17-4.25,7.44,4.56,14.12,10.75,18.27,18.59,2.52-8.45,8.38-15.47,14.63-21.57C425.22,42,418.6,43.92,414.81,48.23Z"/><circle class="cls-15" cx="358.6" cy="60.54" r="4.96"/><line class="cls-14" x1="358.6" y1="55.57" x2="358.6" y2="24.28"/><line class="cls-14" x1="358.6" y1="65.5" x2="358.6" y2="85.65"/><line class="cls-14" x1="358.6" y1="4.1" x2="358.6" y2="11.51"/><line class="cls-14" x1="310.45" y1="60.54" x2="303.04" y2="60.54"/><line class="cls-14" x1="358.6" y1="109.57" x2="358.6" y2="116.97"/></g></g></svg>