<svg width="114" height="179" viewBox="0 0 114 179" fill="none" xmlns="http://www.w3.org/2000/svg">
<path d="M8.96429 157.793C8.96429 168.976 28.0314 178.043 51.5553 178.043C69.9607 178.043 85.6579 172.487 91.6002 164.704L47.0547 167.92L8.96429 157.793Z" fill="#D6D6D6"/>
<path d="M85.4651 156.649C84.3459 156.416 83.183 156.519 82.1215 156.943C75.3947 159.598 63.6152 161.356 50.21 161.356C29.2979 161.356 12.3474 157.074 12.3474 151.794C12.3474 147.122 25.6168 143.235 43.159 142.402L44.3772 136C20.3187 137.494 2.03601 144.935 2.03601 153.888C2.03601 163.924 24.9814 172.057 53.2819 172.057C65.6793 172.057 77.0424 170.497 85.9077 167.898C91.7098 166.198 91.3987 157.881 85.4695 156.64L85.4651 156.649Z" fill="#FFDD95"/>
<g style="mix-blend-mode:multiply" opacity="0.26">
<path d="M65.3945 160.542L83.7473 156.536C83.7473 156.536 88.5678 157.053 89.4442 159.604C89.8967 160.8 89.9867 162.103 89.703 163.35C89.4193 164.597 88.7745 165.733 87.8491 166.615C87.8491 166.615 86.6264 156.554 65.3945 160.542Z" fill="#9B463D"/>
</g>
<path d="M85.4651 156.649C84.3459 156.416 83.183 156.519 82.1214 156.943C75.3947 159.598 63.6152 161.356 50.21 161.356C29.2979 161.356 12.3474 157.074 12.3474 151.794C12.3474 147.122 25.6168 143.235 43.159 142.402L44.3772 136C20.3187 137.494 2.03601 144.935 2.03601 153.888C2.03601 163.924 24.9814 172.057 53.2819 172.057C65.6793 172.057 77.0424 170.497 85.9077 167.898C91.7098 166.198 91.3987 157.881 85.4695 156.64L85.4651 156.649Z" stroke="#CA9E69" stroke-width="3" stroke-linecap="round" stroke-linejoin="round"/>
<path d="M81.898 22.3426C68.9367 18.2951 55.052 18.2783 42.0809 22.2944C38.3911 13.6001 33.3164 6.51835 27.992 2.13611C27.7935 1.97611 27.5625 1.86135 27.315 1.79983C27.0676 1.73831 26.8097 1.73152 26.5593 1.77992C26.309 1.82831 26.0722 1.93074 25.8656 2.08006C25.6589 2.22938 25.4873 2.42199 25.3627 2.64445C14.7664 21.7905 10.0248 43.706 12.0319 67.6112C13.8768 94.2946 24.1532 123.656 33.9124 153.941H90.084C99.8695 123.638 110.041 94.6233 111.943 68.2816C114.033 44.2231 109.234 22.2287 98.3226 2.87671C98.1961 2.65594 98.023 2.46536 97.8155 2.31821C97.6079 2.17105 97.3708 2.07085 97.1206 2.02457C96.8704 1.97828 96.6131 1.98702 96.3666 2.05017C96.1201 2.11333 95.8904 2.22938 95.6933 2.39028C90.4521 6.82949 85.5177 13.7973 81.898 22.3426Z" fill="#FFDD95"/>
<g style="mix-blend-mode:multiply" opacity="0.26">
<path d="M66.6566 58.3168C66.6566 59.7367 64.5399 60.8892 61.9237 60.8892C59.3075 60.8892 57.1909 59.7367 57.1909 58.3168L62.0114 57.2432L66.6566 58.3168Z" fill="#9B463D"/>
</g>
<g style="mix-blend-mode:multiply" opacity="0.26">
<path d="M81.5211 153.416C81.5395 151.553 81.7317 149.695 82.0952 147.868C87.1303 125.431 83.8218 118.507 83.8218 118.507L73.1948 153.499L81.5211 153.416Z" fill="#9B463D"/>
</g>
<g style="mix-blend-mode:multiply" opacity="0.26">
<path d="M41.5595 153.416C41.5411 151.553 41.3489 149.695 40.9854 147.868C35.9502 125.431 39.2325 118.507 39.2325 118.507L49.877 153.49L41.5595 153.416Z" fill="#9B463D"/>
</g>
<path d="M81.898 22.3426C68.9367 18.2951 55.052 18.2783 42.0809 22.2944C38.3911 13.6001 33.3164 6.51835 27.992 2.13611C27.7935 1.97611 27.5625 1.86135 27.315 1.79983C27.0676 1.73831 26.8097 1.73152 26.5593 1.77992C26.309 1.82831 26.0722 1.93074 25.8656 2.08006C25.6589 2.22938 25.4873 2.42199 25.3627 2.64445C14.7664 21.7905 10.0248 43.706 12.0319 67.6112C13.8768 94.2946 24.1532 123.656 33.9124 153.941H90.084C99.8695 123.638 110.041 94.6233 111.943 68.2816C114.033 44.2231 109.234 22.2287 98.3226 2.87671C98.1961 2.65594 98.023 2.46536 97.8155 2.31821C97.6079 2.17105 97.3708 2.07085 97.1206 2.02457C96.8704 1.97828 96.6131 1.98702 96.3666 2.05017C96.1201 2.11333 95.8904 2.22938 95.6933 2.39028C90.4521 6.82949 85.5177 13.7973 81.898 22.3426Z" stroke="#CA9E69" stroke-width="3" stroke-linecap="round" stroke-linejoin="round"/>
<path d="M46.0644 40.6782C47.7537 40.6782 49.1232 39.3087 49.1232 37.6194C49.1232 35.93 47.7537 34.5605 46.0644 34.5605C44.375 34.5605 43.0056 35.93 43.0056 37.6194C43.0056 39.3087 44.375 40.6782 46.0644 40.6782Z" fill="black"/>
<path d="M77.8094 40.6782C79.4987 40.6782 80.8682 39.3087 80.8682 37.6194C80.8682 35.93 79.4987 34.5605 77.8094 34.5605C76.12 34.5605 74.7505 35.93 74.7505 37.6194C74.7505 39.3087 76.12 40.6782 77.8094 40.6782Z" fill="black"/>
<path d="M64.4874 47.9169C62.8043 47.7504 61.1089 47.7504 59.4259 47.9169C58.6371 47.9958 58.3478 48.7933 58.9657 49.2053C59.4916 49.55 60.0204 49.9108 60.5521 50.2877C60.9706 50.5559 61.4573 50.6985 61.9544 50.6985C62.4515 50.6985 62.9382 50.5559 63.3567 50.2877C63.8855 49.9108 64.4158 49.55 64.9475 49.2053C65.5654 48.7933 65.2718 47.987 64.4874 47.9169Z" fill="black"/>
<path d="M83.7473 119.615C83.0987 130.908 77.8707 142.745 74.251 154.038H61.9237L62.007 122.262" fill="#FFDD95"/>
<path d="M40.1002 119.615C40.7487 130.908 47.1117 142.745 50.7446 154.038H61.9237L61.8405 122.262" fill="#FFDD95"/>
<path d="M68.9659 57.9568C68.2318 58.3511 67.4109 58.5559 66.5776 58.5528C64.0272 58.5528 61.9587 56.6947 61.9587 54.3984" stroke="black" stroke-miterlimit="10"/>
<path d="M54.9121 57.9568C55.6464 58.3505 56.4672 58.5553 57.3004 58.5528C59.8553 58.5528 61.9237 56.6947 61.9237 54.3984" stroke="black" stroke-miterlimit="10"/>
<path d="M83.7473 119.615C83.0987 130.908 76.7357 142.745 73.1028 154.038H61.9237L62.007 122.262" stroke="#CA9E69" stroke-width="3" stroke-linecap="round" stroke-linejoin="round"/>
<path d="M40.1002 119.615C40.7487 130.908 45.9767 142.745 49.5965 154.038H61.9237L61.8405 122.262" stroke="#CA9E69" stroke-width="3" stroke-linecap="round" stroke-linejoin="round"/>
<g style="mix-blend-mode:multiply" opacity="0.26">
<path d="M87.5467 26.7463C90.3908 18.0651 94.4925 15.8564 94.4925 15.8564C94.4925 15.8564 97.49 16.9608 97.49 28.7972" fill="#9B463D"/>
</g>
<g style="mix-blend-mode:multiply" opacity="0.26">
<path d="M36.3008 26.7463C33.4611 18.0651 29.3725 15.8564 29.3725 15.8564C29.3725 15.8564 26.375 16.9608 26.375 28.7972" fill="#9B463D"/>
</g>
<path d="M55.1137 149.459L56.0734 153.762" stroke="#CA9E69" stroke-width="3" stroke-linecap="round" stroke-linejoin="round"/>
<path d="M68.7337 149.459L67.7784 153.762" stroke="#CA9E69" stroke-width="3" stroke-linecap="round" stroke-linejoin="round"/>
<g opacity="0.24">
<path opacity="0.24" d="M79.0934 56.2959C83.6673 57.5012 88.439 57.7606 93.1166 57.0584" stroke="#A83727" stroke-width="1.75" stroke-linecap="round" stroke-linejoin="round"/>
<path opacity="0.24" d="M77.7962 59.2012C81.7049 61.7462 86.0256 63.5937 90.5661 64.6614" stroke="#A83727" stroke-width="1.75" stroke-linecap="round" stroke-linejoin="round"/>
<path opacity="0.24" d="M79.0934 52.168C83.0807 51.87 86.9745 50.814 90.5661 49.0566" stroke="#A83727" stroke-width="1.75" stroke-linecap="round" stroke-linejoin="round"/>
<path opacity="0.24" d="M44.7541 56.2959C40.1802 57.5012 35.4086 57.7606 30.731 57.0584" stroke="#A83727" stroke-width="1.75" stroke-linecap="round" stroke-linejoin="round"/>
<path opacity="0.24" d="M46.0513 59.2012C42.1426 61.7462 37.8219 63.5937 33.2814 64.6614" stroke="#A83727" stroke-width="1.75" stroke-linecap="round" stroke-linejoin="round"/>
<path opacity="0.24" d="M44.7541 52.168C40.7668 51.87 36.873 50.814 33.2814 49.0566" stroke="#A83727" stroke-width="1.75" stroke-linecap="round" stroke-linejoin="round"/>
</g>
</svg>
