<svg width="122" height="178" viewBox="0 0 122 178" fill="none" xmlns="http://www.w3.org/2000/svg">
<path d="M28.7686 25.9582L51.7915 16.6826L75.2596 17.2362L97.1676 26.1103L93.2124 57.3133C93.2124 57.3133 89.978 56.8908 85.0563 62.942L37.8574 61.4334C37.8574 61.4334 34.89 55.4371 28.7686 56.2527V25.9582Z" fill="#F7C977"/>
<path d="M2.03635 158.217C2.03635 169.005 20.4767 177.748 43.2368 177.748C61.0413 177.748 113.976 170.945 119.724 163.44L61.6899 156.514L2.03635 158.217Z" fill="#D6D6D6"/>
<path d="M119.423 159.891C119.207 156.379 106.015 152.449 106.015 152.449C110.012 136.15 109.762 125.286 109.762 125.286C108.787 107.356 95.2726 109.537 95.2726 109.537L94.9886 84.6045C95.0522 81.9761 93.5473 81.7014 93.5473 81.7014C107.604 76.7108 104.145 62.8376 104.145 62.8376C100.474 53.1184 105.362 45.7317 105.362 45.7317C109.809 40.2678 108.724 35.9702 108.724 35.9702C107.269 21.835 90.7282 16.1641 90.7282 16.1641C80.8171 3.76991 66.777 2.21906 66.777 2.21906L60.8803 1.75L54.9454 2.22329C54.9454 2.22329 40.9095 3.78682 30.9984 16.1683C30.9984 16.1683 14.4656 21.8393 13.0031 35.9745C13.0031 35.9745 11.9136 40.2721 16.3648 45.736C16.3648 45.736 21.2483 53.1099 17.5814 62.8419C17.5814 62.8419 14.1392 76.715 28.1793 81.7057C28.1793 81.7057 26.6744 81.9803 26.7338 84.6088L26.454 109.541C26.454 109.541 12.9734 107.356 11.9984 125.286C11.9984 125.286 11.7526 136.15 15.7501 152.449C15.7501 152.449 2.55356 156.379 2.33736 159.891C2.33736 159.891 -0.244291 169.048 9.70504 166.5C10.129 166.411 44.4662 167.383 44.4662 167.383C44.4662 167.383 48.2094 165.967 47.9127 160.977C47.9127 161.48 59.7315 161.822 60.8252 161.868H60.9142C62.0079 161.835 73.8097 161.48 73.8224 160.977C73.5299 165.967 77.2731 167.383 77.2731 167.383C77.2731 167.383 111.61 166.411 112.034 166.5C122.005 169.048 119.423 159.891 119.423 159.891Z" fill="#FFDD95" stroke="#CA9E69" stroke-width="3" stroke-miterlimit="10"/>
<path opacity="0.46" d="M52.1137 123.079C52.2514 123.117 52.3808 123.18 52.4952 123.265C52.5871 123.324 52.6524 123.417 52.6775 123.523C52.7072 123.713 52.5164 123.861 52.3553 123.975C51.0284 124.926 50.4222 126.574 49.9983 128.146C46.9461 139.555 49.9263 151.78 47.6498 163.355C47.5525 164.093 47.2919 164.8 46.8868 165.425C46.2933 166.22 45.3183 166.621 44.3899 166.985C44.1736 167.088 43.9345 167.136 43.6947 167.124C42.8087 166.993 43.4573 165.717 43.5887 165.239C43.8091 164.42 44.0126 163.591 44.1864 162.763C44.5468 161.098 44.8308 159.421 45.0639 157.739C45.5345 154.358 45.7973 150.935 46.0432 147.525C46.5392 140.764 46.4417 133.757 48.3874 127.208C48.5561 126.449 48.8316 125.717 49.2056 125.035C49.5887 124.46 50.0543 123.943 50.5876 123.502C50.7882 123.313 51.0321 123.175 51.2981 123.102C51.564 123.028 51.844 123.02 52.1137 123.079Z" fill="#E5B378"/>
<path opacity="0.46" d="M72.4913 122.859C72.3529 122.889 72.2209 122.944 72.1013 123.02C72.0041 123.072 71.9311 123.16 71.8979 123.265C71.8597 123.459 72.0378 123.616 72.1904 123.742C73.4621 124.773 73.5257 126.675 73.8436 128.272C76.171 139.834 72.8559 151.641 74.3905 163.346C74.4407 164.089 74.6565 164.81 75.0221 165.459C75.5605 166.304 76.5143 166.752 77.4173 167.175C77.6256 167.292 77.8605 167.355 78.0998 167.356C78.99 167.28 78.422 165.966 78.3245 165.484C78.1591 164.639 78.0108 163.794 77.9005 162.974C77.6462 161.284 77.4766 159.594 77.3452 157.903C77.0908 154.493 77.0442 151.07 77.0145 147.647C76.951 140.852 77.4893 133.884 75.9675 127.224C75.8451 126.456 75.6169 125.708 75.2892 125.002C74.946 124.405 74.5176 123.861 74.0175 123.387C73.8272 123.18 73.588 123.023 73.3216 122.93C73.0551 122.838 72.7697 122.814 72.4913 122.859Z" fill="#E5B378"/>
<path d="M47.7728 163.586C47.7728 163.586 49.32 142.339 48.9767 132.497C48.8973 130.644 49.262 128.799 50.0407 127.114C51.6855 123.64 55.3693 118.743 62.9956 119.085C62.9956 119.085 73.5935 118.1 74.4414 129.387C74.4772 129.95 74.4772 130.515 74.4414 131.078C74.1912 135.827 72.805 164.782 76.2515 165.97C76.2515 165.97 79.5835 168.48 83.2249 167.098C84.0716 166.823 84.9863 166.837 85.8235 167.14C86.6078 167.381 87.5489 167.111 88.579 167.111C90.2746 167.111 87.8286 167.33 91.9915 166.954C92.8987 166.87 93.2633 167.111 95.4634 166.861L92.9665 17.5144L81.7751 8.45862L60.8803 2.01855L51.1853 7.22892C49.696 7.39641 48.255 7.85751 46.9461 8.58539L37.9591 10.2461L29.6461 17.5017L24.6778 166.46C24.6778 166.46 35.9879 167.132 38.099 167.132C38.4617 167.106 38.8257 167.106 39.1884 167.132C41.308 167.292 42.5289 167.132 44.9749 167.132C46.5603 167.132 46.2763 164.715 47.7728 163.586Z" stroke="#CA9E69" stroke-width="2" stroke-miterlimit="10"/>
<path d="M60.0367 56.8149C67.6035 56.8149 73.7377 52.0718 73.7377 46.2209C73.7377 40.37 67.6035 35.627 60.0367 35.627C52.4698 35.627 46.3357 40.37 46.3357 46.2209C46.3357 52.0718 52.4698 56.8149 60.0367 56.8149Z" fill="black"/>
<path d="M30.0912 16.1969L29.1035 34.3212C29.1035 34.3212 37.9337 20.2071 57.5865 15.863C57.5865 15.863 55.3482 9.46101 59.0405 1.85886C59.0405 1.85886 58.3156 1.51235 56.1579 2.0448C50.6003 3.41395 38.8536 7.30587 30.0912 16.1969Z" fill="#E5B378"/>
<path d="M91.4786 15.9514L92.4663 34.0715C92.4663 34.0715 83.2164 20.3039 63.5636 15.9599C63.5636 15.9599 66.8871 9.70573 63.1948 2.10359C63.1948 2.10359 63.924 1.75285 66.0817 2.2853C71.6392 3.64599 82.7162 7.06041 91.4786 15.9514Z" fill="#E5B378"/>
<path d="M75.5139 73.633C75.5139 73.633 75.2087 78.8729 68.0445 79.3843C68.0445 79.3843 60.9651 92.1841 54.8056 79.3843C54.8056 79.3843 48.3959 78.6997 46.0729 73.7471C46.0729 73.7471 56.2172 70.5904 60.9396 60.4824C60.9396 60.4824 67.6333 74.9303 75.5139 73.633Z" fill="#FC887B"/>
<path d="M82.0803 48.3128C79.6725 43.7912 76.1794 39.988 72.4829 36.4384C70.7151 34.7481 68.8753 33.1043 67.3959 31.1435C65.9164 29.1828 64.8524 26.8417 64.8524 24.3823C64.8524 20.7143 67.2093 17.4647 67.8876 13.8601C68.5192 10.4795 67.6545 7.03976 66.5523 3.80282C66.4432 3.34474 66.1926 2.93236 65.8358 2.62384C65.4445 2.42156 65.0029 2.33644 64.5641 2.37874H61.461H60.414H57.3109C56.8705 2.34235 56.429 2.43332 56.0391 2.64074C55.6757 2.95211 55.4217 3.37114 55.3142 3.83663C54.2078 7.07356 53.343 10.5302 53.9747 13.8939C54.6529 17.4985 57.0141 20.7481 57.0141 24.4161C57.0141 26.8586 55.9374 29.1997 54.4706 31.1773C53.0039 33.155 51.1726 34.7861 49.3836 36.4722C45.6871 40.0049 42.177 43.8419 39.7904 48.3466C37.4037 52.8512 36.1193 58.1081 37.0731 63.1368C37.709 66.4624 39.4301 69.729 42.3254 71.4995C45.4709 73.4223 49.6804 73.2617 52.8809 71.4235C54.8402 70.2632 56.4508 68.5994 57.544 66.6061C59.1125 63.8044 59.6636 60.5041 59.8586 57.3348C59.9252 56.884 59.8665 56.4236 59.6891 56.0037C59.4354 55.608 59.0776 55.2894 58.6547 55.0825C56.3232 53.6837 53.8093 52.4921 51.872 50.5736C49.9347 48.6551 48.7054 45.7435 49.6422 43.1954C50.2527 41.5347 51.7025 40.2796 53.3218 39.5612C54.9749 38.905 56.7283 38.5349 58.5063 38.4668C59.3542 38.4034 60.308 38.3062 60.8209 37.6216C60.8548 37.5751 60.8887 37.5244 60.9184 37.4737C60.9469 37.5255 60.9795 37.575 61.0159 37.6216C61.5246 38.2935 62.4827 38.3907 63.3263 38.4668C65.1043 38.5349 66.8576 38.905 68.5108 39.5612C70.1301 40.2796 71.5842 41.5347 72.1946 43.1954C73.1272 45.7308 71.8851 48.6551 69.9648 50.5736C68.0445 52.4921 65.5306 53.6837 63.1821 55.0825C62.7426 55.2499 62.3787 55.5701 62.1574 55.9841C61.9362 56.398 61.8725 56.8777 61.9782 57.3348C62.1647 60.5041 62.7243 63.8044 64.2928 66.6061C65.3861 68.5994 66.9966 70.2632 68.9559 71.4235C72.1564 73.2617 76.3659 73.4223 79.5156 71.4995C82.411 69.729 84.1321 66.4624 84.7637 63.1368C85.7599 58.0743 84.4882 52.8217 82.0803 48.3128Z" fill="#EFC786"/>
<path d="M94.7766 139.716L94.9504 98.3418C94.9504 98.3418 66.2343 120.755 94.7766 139.716Z" fill="#CA9E69"/>
<path d="M26.0682 138.553L26.8355 97.1826C26.8355 97.1826 55.0387 120.276 26.0682 138.553Z" fill="#CA9E69"/>
<path d="M48.4595 34.0465C49.9603 34.0465 51.1768 31.8272 51.1768 29.0896C51.1768 26.3521 49.9603 24.1328 48.4595 24.1328C46.9588 24.1328 45.7422 26.3521 45.7422 29.0896C45.7422 31.8272 46.9588 34.0465 48.4595 34.0465Z" fill="black"/>
<path d="M73.7376 34.0465C75.2384 34.0465 76.4549 31.8272 76.4549 29.0896C76.4549 26.3521 75.2384 24.1328 73.7376 24.1328C72.2369 24.1328 71.0203 26.3521 71.0203 29.0896C71.0203 31.8272 72.2369 34.0465 73.7376 34.0465Z" fill="black"/>
<path d="M92.9328 81.1603L92.9488 81.1557C96.7836 80.068 99.2843 78.1811 100.898 75.9844C102.517 73.7809 103.267 71.2324 103.541 68.7918C103.814 66.3509 103.608 64.0383 103.331 62.3313C103.193 61.4791 103.037 60.7812 102.917 60.298C102.857 60.0565 102.806 59.8688 102.77 59.7426C102.752 59.6795 102.738 59.6317 102.728 59.6003L102.72 59.574C101.963 57.7199 101.943 55.537 102.304 53.3485C102.668 51.1455 103.425 48.8897 104.264 46.8701C105.105 44.8482 106.035 43.0483 106.754 41.7547C107.114 41.1075 107.422 40.5859 107.64 40.2254C107.749 40.0451 107.836 39.905 107.896 39.8096C107.907 39.7918 107.917 39.7755 107.927 39.7609C108.839 31.825 104.581 26.0748 100.003 22.2667C97.7061 20.3558 95.3442 18.949 93.5544 18.0196C92.6604 17.5554 91.911 17.2112 91.3867 16.9837C91.3675 16.9754 91.3485 16.9672 91.3299 16.9592C92.3778 27.3832 91.956 40.6656 91.2632 51.4293C90.9073 56.9601 90.4791 61.8337 90.14 65.3248C89.9704 67.0704 89.8231 68.4706 89.7181 69.4348C89.6656 69.9168 89.6237 70.2899 89.5949 70.5426C89.5805 70.669 89.5694 70.7652 89.5618 70.83L89.5532 70.9034L89.551 70.922L89.5505 70.9267L89.5503 70.928C89.5503 70.9283 89.5503 70.9284 89.0538 70.8695L89.5503 70.9284L89.5401 71.0145L89.5015 71.0921C87.6684 74.7793 87.0419 77.2189 87.0718 78.8017C87.0866 79.5839 87.2613 80.1362 87.5101 80.5285C87.7574 80.9184 88.0983 81.1829 88.5024 81.3582C89.3341 81.719 90.4129 81.6923 91.3405 81.5468C91.7945 81.4756 92.1922 81.3793 92.4762 81.3007C92.6178 81.2616 92.7303 81.227 92.8064 81.2027C92.8444 81.1905 92.8733 81.1809 92.8921 81.1745L92.9126 81.1675L92.9169 81.1659L92.9172 81.1658L92.9328 81.1603ZM92.9328 81.1603L92.9176 81.1657L92.9328 81.1603Z" fill="#E5B378" stroke="#CA9E69"/>
<path d="M30.1676 16.9591C29.1177 27.3832 29.5385 40.6656 30.2307 51.4293C30.5865 56.96 31.0144 61.8337 31.3535 65.3248C31.523 67.0704 31.6704 68.4706 31.7754 69.4348C31.8279 69.9168 31.8698 70.2899 31.8986 70.5426C31.913 70.669 31.9241 70.7652 31.9316 70.83L31.9402 70.9034L31.9424 70.922L31.943 70.9267L31.9431 70.928C31.9431 70.9283 31.9432 70.9284 32.4397 70.8695L31.9432 70.9284L31.9534 71.0145L31.992 71.0921C33.8251 74.7793 34.4518 77.219 34.4223 78.8018C34.4077 79.5841 34.2332 80.1364 33.9846 80.5287C33.7376 80.9185 33.3969 81.183 32.993 81.3582C32.162 81.719 31.0838 81.6923 30.1565 81.5468C29.7028 81.4756 29.3052 81.3793 29.0214 81.3007C28.8798 81.2616 28.7673 81.227 28.6913 81.2027C28.6776 81.1983 28.6651 81.1943 28.6539 81.1906C28.6338 81.184 28.6177 81.1786 28.6057 81.1745L28.5852 81.1675L28.5808 81.166L28.5805 81.1658L28.5802 81.1657L30.1676 16.9591ZM30.1676 16.9591C30.149 16.9672 30.13 16.9754 30.1107 16.9838C29.5863 17.2112 28.8368 17.5554 27.9425 18.0197C26.1524 18.949 23.7899 20.3559 21.4922 22.2668C16.9134 26.0748 12.6547 31.8251 13.5668 39.7609C13.5761 39.7755 13.5863 39.7918 13.5975 39.8096C13.6572 39.905 13.744 40.0451 13.8531 40.2254C14.0714 40.5859 14.3791 41.1075 14.739 41.7547C15.4583 43.0483 16.3885 44.8482 17.2292 46.8701C18.0689 48.8897 18.8256 51.1455 19.189 53.3485C19.55 55.5369 19.5307 57.7199 18.7732 59.574L30.1676 16.9591Z" fill="#E5B378" stroke="#CA9E69"/>
<path d="M71.3468 44.0156C65.8358 45.3087 61.6772 51.1994 61.6772 58.286C61.6772 66.315 67.027 72.8269 73.6274 72.8269C78.5194 72.8269 82.7289 69.2477 84.5687 64.1176" stroke="black" stroke-width="2" stroke-miterlimit="10" stroke-linecap="round"/>
<path d="M50.3883 43.9688C55.9967 45.1689 60.2528 51.1187 60.2528 58.2856C60.2528 66.3146 54.9073 72.8265 48.3069 72.8265C43.3428 72.8265 39.0824 69.1416 37.285 63.8932" stroke="black" stroke-width="2" stroke-miterlimit="10" stroke-linecap="round"/>
</svg>
