<svg width="226" height="204" xmlns="http://www.w3.org/2000/svg" viewBox="0 0 500.35 465.37"><defs><style>.cls-1{fill:#d8c1e5;stroke-width:8px;}.cls-1,.cls-2,.cls-3,.cls-4{stroke:#3b3054;stroke-miterlimit:10;}.cls-2{fill:#fff;stroke-width:5px;}.cls-3{fill:#ffdd95;}.cls-3,.cls-4{stroke-width:4px;}.cls-4{fill:#fc887b;}.cls-5{fill:#3b3054;}.cls-6{fill:none;}.cls-7{fill:#666;}.cls-8{fill:#878787;}.cls-9{fill:#777;}.cls-10{fill:#e3e3e3;}.cls-11{fill:#a2a2a2;}.cls-12{fill:#e4e4e4;}.cls-13{fill:#c3c3c3;}.cls-14{fill:#86e3ce;}.cls-15{fill:#ccabda;}</style></defs><g id="Layer_2" data-name="Layer 2"><g id="Layer_1-2" data-name="Layer 1"><rect class="cls-1" x="48.45" y="22.77" width="224.31" height="334.93" rx="37.48" transform="translate(-61.05 76.87) rotate(-22.74)"/><rect class="cls-2" x="33.62" y="61.57" width="182.83" height="91.41" rx="6.59" transform="translate(-31.75 56.67) rotate(-22.74)"/><rect class="cls-3" x="74.11" y="194.98" width="50.46" height="25.82" rx="5.4" transform="translate(-72.64 54.56) rotate(-22.74)"/><rect class="cls-3" x="132.55" y="170.49" width="50.46" height="25.82" rx="5.4" transform="translate(-58.63 75.25) rotate(-22.74)"/><rect class="cls-3" x="190.8" y="145.55" width="50.46" height="25.82" rx="5.4" transform="translate(-44.46 95.82) rotate(-22.74)"/><rect class="cls-4" x="228.79" y="188.08" width="44.55" height="107.95" rx="9.32" transform="translate(-74.05 115.87) rotate(-22.74)"/><circle class="cls-4" cx="123.92" cy="262.87" r="23.05"/><circle class="cls-4" cx="180.33" cy="239.22" r="23.05"/><circle class="cls-4" cx="203.74" cy="295.07" r="23.05"/><circle class="cls-4" cx="147.33" cy="318.71" r="23.05"/><path class="cls-5" d="M63.93,111.64q3.33-1.4,6.13,2l3.41,8.14q3.77-3.93,8.26-15.17c-.16-.38.44-1.07,1.8-2.08l1.57-.65q4.05-.5,5.14,2.1l.66,1.57Q92.36,111,81.81,127a98,98,0,0,0,16.79,3.33,7.89,7.89,0,0,1,2.77,2.82Q102.5,138,99,139.47l-.68.28q-2.37,1-19.66-3.17,2.11,7.36,1.84,8.73a5.34,5.34,0,0,1-2.3,2.88l-1.13.47q-3.52,1.47-6.19-2.71a153.67,153.67,0,0,0-6.7-21.11l-2.56-6.1q-1.86-4.44,1.88-6.91Z"/><path class="cls-5" d="M106.43,92.78l1.14-.48q8.59-2.33,11.26,4,1.15,5.1-2.54,6.64-2.78,1.17-5.3-1.24l-.22.09q-7,3-5,12.75c.29,1.13.47,1.77.52,1.89q2.33,5.55,7.74,5.8c.33-.11.66-.23,1-.36a21.13,21.13,0,0,0,5.37-3.44,6.45,6.45,0,0,1,1.63-1q2.43-1,4.74,1.2a8,8,0,0,1,1.92,2.59,4,4,0,0,1-.28,3.35,8.13,8.13,0,0,1-2.62,3.12,28,28,0,0,1-5.36,2.78q-10.85,4.55-18.87-3.78a21.44,21.44,0,0,1-4.29-6.44q-5.46-13,3.66-23.59A19.83,19.83,0,0,1,106.43,92.78Z"/><path class="cls-5" d="M135.47,81.61l.68-.29q3.85-1.6,10.26,6.06Q157,97.49,164.66,103.65l.77,1.82q1.2,2.88-2.83,6-4.07,1.71-9.28-4.36a31.68,31.68,0,0,1-9.95,6.68c-.75.31-1.51.59-2.29.84.18,5.43-.73,8.55-2.72,9.39l-1.12.47c-2.88.33-4.71-.42-5.47-2.24l-.47-1.12q-.48-1.16.26-20.31.44-14.66,1.19-16.17A5.59,5.59,0,0,1,135.47,81.61Zm6,15-.15,6.6.22-.09a7.35,7.35,0,0,0,1.4-.45,12.07,12.07,0,0,0,3.46-2.29C143.45,97.74,141.81,96.49,141.51,96.61Z"/><path class="cls-5" d="M160.77,71.6q3.78-1.59,6.52,2.84a174.46,174.46,0,0,0,6.37,19.65q.92,1.51,1,1.71.6-.26,7.87-5.94l.45-.19c1.92-.81,3.72-.32,5.39,1.45a7.63,7.63,0,0,1,1,1.71q2,4.67-11.28,12.44l-.44.19q-5.76,2.42-10.37-2.58A22.09,22.09,0,0,1,165.09,99l-.09-.22q-8.13-21.44-7.27-23.86A5.34,5.34,0,0,1,160.77,71.6Z"/><path class="cls-6" d="M340.86,465.34q-66.35,0-132.67,0c-1.07,0-1.4-.17-1.4-1.35q0-99.86,0-199.7c0-1.24.27-1.44,1.46-1.44q145.31,0,290.61,0c1.35,0,1.49.38,1.49,1.56q0,81.33,0,162.64c-.83-.13-.7-.87-.82-1.38-2.1-8.83-4.08-17.68-6.1-26.51q-4.32-18.8-8.61-37.6c-1.94-8.5-4-17-5.77-25.51a14.26,14.26,0,0,0-7-9.88,51.35,51.35,0,0,0-14.16-5.53c-2.86-.69-4.25-2-5.24-4.9-4.34-13-13.5-20.69-27.16-22.77a35,35,0,0,0-5.52-.06,2.51,2.51,0,0,1-2.4-1.41c-5.44-8.94-13.22-14.48-23.66-16.07a31.68,31.68,0,0,0-13.45.89c-2.31.65-2.3.66-3.74-1.2a27.73,27.73,0,0,0-18.52-11c-11.16-1.58-20.25,2.26-27.28,11-1.51,1.88-1.44,1.85-3.8,1.24q-17.94-4.61-31.5,8a27.55,27.55,0,0,0-5.44,6.9,2.89,2.89,0,0,1-3,1.65,29.42,29.42,0,0,0-14.41,2.65,32.24,32.24,0,0,0-17.22,18.18,19.62,19.62,0,0,0-1.17,3.7,2.93,2.93,0,0,1-2.51,2.58,86.22,86.22,0,0,0-8.44,2.55,36.7,36.7,0,0,0-10.08,5.16,11,11,0,0,0-4.3,6.44c-2.68,11.5-5.29,23-7.93,34.52s-5.27,23-7.91,34.53c-1.75,7.58-3.4,15.17-5.24,22.72-1,4,.54,7.12,3.12,9.93a33.64,33.64,0,0,0,9.69,6.91,116.18,116.18,0,0,0,20.22,7.75,318.72,318.72,0,0,0,49,10.11c8,1.07,16,1.94,24.06,2.53,6.8.5,13.6,1,20.42,1.21a29.67,29.67,0,0,1,6.37.51A.32.32,0,0,1,340.86,465.34Z"/><path class="cls-5" d="M340.85,465.09c-9.16-.33-18.32-.75-27.47-1.51-10.22-.86-20.42-2-30.56-3.54A312.23,312.23,0,0,1,242,451.3c-8.5-2.49-16.87-5.34-24.55-9.88a25.92,25.92,0,0,1-8-6.81,10.32,10.32,0,0,1-1.86-9q10.47-45.25,20.74-90.55c1.06-4.7,3.94-7.54,7.86-9.73,5-2.82,10.52-4.42,16.06-5.85a1.84,1.84,0,0,0,1.58-1.6,32.82,32.82,0,0,1,33.77-25.44,1.9,1.9,0,0,0,2.08-1.12A32.91,32.91,0,0,1,328,276.21a1.5,1.5,0,0,0,2-.68,29,29,0,0,1,47.33,0,1.5,1.5,0,0,0,2,.69,32.94,32.94,0,0,1,38.42,15.13,1.88,1.88,0,0,0,2.07,1.12,32.8,32.8,0,0,1,33.73,25.31,2,2,0,0,0,1.77,1.78,72.89,72.89,0,0,1,15,5.29c5.17,2.57,8,6.53,9.29,12.29,6.62,29.85,13.52,59.62,20.33,89.42a2.11,2.11,0,0,0,.26.52v3c-.5,3.84-2.95,6.43-5.77,8.72a54.63,54.63,0,0,1-13.93,7.74c-10.92,4.51-22.32,7.4-33.82,9.93A377.35,377.35,0,0,1,405.17,463c-6.58.7-13.18,1.21-19.79,1.62-6.27.4-12.54.44-18.81.57H342.94A9.16,9.16,0,0,1,340.85,465.09Z"/><path class="cls-6" d="M366.59,465.09c9.51-.32,19-.77,28.5-1.57,10.28-.86,20.52-2,30.71-3.62a306.77,306.77,0,0,0,39.63-8.59c8.87-2.62,17.63-5.55,25.55-10.49a24.17,24.17,0,0,0,7.55-6.9,33.66,33.66,0,0,0,1.79-3.86c0,11.36,0,22.72,0,34.09,0,1-.2,1.22-1.22,1.22q-66.27,0-132.54,0c-.1-.06-.13-.11-.1-.17A.14.14,0,0,1,366.59,465.09Z"/><path class="cls-7" d="M352.22,465.09h3c.09.06.12.12.08.17s-.06.08-.09.08h-3c-.1,0-.13-.11-.1-.16S352.19,465.09,352.22,465.09Z"/><path class="cls-8" d="M346.83,465.1h2.69c.11,0,.14.1.11.16s-.06.08-.1.08h-2.69c-.09,0-.13-.1-.1-.16S346.8,465.1,346.83,465.1Z"/><path class="cls-9" d="M349.53,465.34a1.93,1.93,0,0,0,0-.24h2.7c0,.08,0,.17,0,.25Z"/><path class="cls-9" d="M355.22,465.34a2.09,2.09,0,0,1,0-.25h2.69c.09,0,.12.11.09.16s-.07.08-.1.08Z"/><path class="cls-8" d="M357.91,465.34a1.93,1.93,0,0,1,0-.24h2.69c.09.06.12.11.09.16s-.07.08-.1.08Z"/><path class="cls-10" d="M340.85,465.09h2.09c.1.06.14.11.11.17a.14.14,0,0,1-.1.08h-2.09A2.09,2.09,0,0,0,340.85,465.09Z"/><path class="cls-11" d="M346.83,465.1a1.93,1.93,0,0,0,0,.24h-2.09c-.1,0-.13-.11-.1-.16s.06-.09.09-.09Z"/><path class="cls-11" d="M360.6,465.34a1.93,1.93,0,0,0,0-.24h2.1c.09.06.11.12.08.17s-.06.08-.09.08Z"/><path class="cls-12" d="M366.59,465.09a2.09,2.09,0,0,0,0,.25h-2.1c-.1-.06-.13-.11-.09-.17a.14.14,0,0,1,.1-.08Z"/><path class="cls-13" d="M344.74,465.09c0,.08,0,.17,0,.25H343c0-.08,0-.16,0-.25Z"/><path class="cls-13" d="M364.5,465.09a2,2,0,0,1,0,.25H362.7a2.09,2.09,0,0,1,0-.25Z"/><path class="cls-14" d="M471.19,346.19c1.37,6,2.69,11.83,4,17.67q7.23,31.62,14.51,63.23a2.41,2.41,0,0,1-.78,2.63,33.21,33.21,0,0,1-8.36,5.16c-9.95,4.66-20.48,7.6-31.13,10.11a355.33,355.33,0,0,1-42.24,7.12A484.44,484.44,0,0,1,335,454.68c-13-.51-26.07-1.48-39-3.1-19-2.39-37.89-5.71-56.18-11.66-6.58-2.14-13.05-4.56-18.89-8.36-3.58-2.32-3.61-2.38-2.68-6.46q8.85-38.84,17.73-77.64c.09-.38.22-.76.37-1.24a69.07,69.07,0,0,0,13.1,4.93,222.06,222.06,0,0,0,31.51,6c27.85,3.51,55.83,4.46,83.87,4.07,15.35-.21,30.69-.91,46-2.34,15.62-1.46,31.18-3.37,46.39-7.43A70.06,70.06,0,0,0,471.19,346.19Z"/><path class="cls-3" d="M351.33,351.08c-16.7-.13-33.38-.71-50-2.1-8-.67-16-1.5-23.91-2.63a8.26,8.26,0,0,1-3.08-1.42,23.23,23.23,0,0,1-10.93-23.6c1.4-8.74,8.4-16.07,17.44-18.21a23.41,23.41,0,0,1,9.65-.1c3.24.61,5.2-.45,6.47-3.55a22.5,22.5,0,0,1,13.88-13.3,22.15,22.15,0,0,1,17.54,1.11c3.89,1.89,6.39,1,8.25-2.81,3.47-7.11,9.27-10.92,17.12-10.92s13.64,3.82,17.1,10.94c1.85,3.78,4.41,4.72,8.13,2.86a22.83,22.83,0,0,1,31.2,11.31c1.85,4.3,3.25,5,7.85,4.2,15.86-2.9,30.16,13.05,25.48,28.48-1.83,6-5.8,10.57-10.7,14.37a2.6,2.6,0,0,1-1.26.4c-8.82,1.32-17.68,2.23-26.57,3-16.65,1.38-33.34,1.88-50,2Z"/><path class="cls-15" d="M468.38,335.87c-5.62,3.78-12.1,5.24-18.78,7a36.76,36.76,0,0,0,3.89-9.21c.26-1.06.5-2.12.68-3.2.09-.51.26-.68.77-.52,4.27,1.29,8.57,2.51,12.39,4.93A2.37,2.37,0,0,1,468.38,335.87Z"/><path class="cls-15" d="M257.86,342.83c-6.17-1.57-12.15-3-17.51-6.15-1.52-.9-1.5-1.06,0-2,3.77-2.29,8-3.51,12.14-4.77.46-.14.7-.1.79.47a34.36,34.36,0,0,0,1.65,6.32A44,44,0,0,0,257.86,342.83Z"/><path class="cls-2" d="M319.81,378A19.35,19.35,0,0,1,324.47,388a53,53,0,0,1,.18,13.56l8.17.08L335.38,382a4.3,4.3,0,0,1,1.55-2.75,4.41,4.41,0,0,1,3-1.14,3.45,3.45,0,0,1,2.68,1.19,3.34,3.34,0,0,1,.83,2.77l-2.56,19.62,8,.07,2.56-19.62a4.3,4.3,0,0,1,1.55-2.75,4.41,4.41,0,0,1,3-1.14,3.45,3.45,0,0,1,2.68,1.19,3.34,3.34,0,0,1,.83,2.77l-2.56,19.62,8,.07,1.53-11.77a4.27,4.27,0,0,1,1.56-2.75,4.41,4.41,0,0,1,3-1.14,3.42,3.42,0,0,1,2.67,1.19,3.31,3.31,0,0,1,.83,2.77L373,402l8,.07.51-3.92a4.3,4.3,0,0,1,1.55-2.75,4.41,4.41,0,0,1,3-1.14,3.45,3.45,0,0,1,2.68,1.19,3.34,3.34,0,0,1,.83,2.77l-.51,3.92,9.79.09a48.57,48.57,0,0,1,8.93-12,28.59,28.59,0,0,1,12-7.44c0,.41.64,1.05,1.82,1.92s1.75,1.55,1.69,2Q422,396.41,417.47,402t-13.21,7.25L404,411q8.19,1.78,11.29,7.46t1.82,15.37c-.06.49-.8,1.16-2.21,2s-2.18,1.48-2.32,1.89a20.57,20.57,0,0,1-10-7.64,35.37,35.37,0,0,1-5.77-12.15l-9.79-.08-.52,3.92A4.28,4.28,0,0,1,385,424.5a4.41,4.41,0,0,1-3,1.14,3.45,3.45,0,0,1-2.67-1.19,3.32,3.32,0,0,1-.84-2.77l.52-3.92-8-.07-1.54,11.77a4.29,4.29,0,0,1-1.56,2.75,4.39,4.39,0,0,1-3,1.14,3.47,3.47,0,0,1-2.67-1.19,3.36,3.36,0,0,1-.83-2.77l1.54-11.77-8-.08-2.57,19.63a4.25,4.25,0,0,1-1.55,2.74,4.41,4.41,0,0,1-3,1.14,3.45,3.45,0,0,1-2.68-1.19,3.34,3.34,0,0,1-.83-2.77l2.57-19.62-8-.07L336.24,437a4.25,4.25,0,0,1-1.55,2.75,4.41,4.41,0,0,1-3,1.14,3.42,3.42,0,0,1-2.67-1.19,3.31,3.31,0,0,1-.84-2.77l2.57-19.62-8.17-.07a59.12,59.12,0,0,1-3.72,13.53,26.61,26.61,0,0,1-7.27,9.95q-10.82-2-16.19-10.83t-3.83-20.78a38.22,38.22,0,0,1,9.24-20.67A30.83,30.83,0,0,1,319.81,378Zm-9.14,39.21a4.38,4.38,0,0,0,3-1.14,4.29,4.29,0,0,0,1.56-2.75,3.34,3.34,0,0,0-.83-2.77,3.45,3.45,0,0,0-2.68-1.19,4.41,4.41,0,0,0-3,1.14,4.3,4.3,0,0,0-1.55,2.75A3.36,3.36,0,0,0,308,416,3.49,3.49,0,0,0,310.67,417.16Z"/></g></g></svg>