<svg width="239" height="269" viewBox="0 0 239 269" fill="none" xmlns="http://www.w3.org/2000/svg">
<ellipse cx="162.263" cy="58.7391" rx="76.1433" ry="58.7391" fill="white"/>
<path d="M162.529 25.7393C175.814 26.1722 184.062 30.2965 187.275 38.1123C187.799 39.8441 188.061 41.0404 188.061 41.7012V44.0938C188.061 50.9297 181.943 56.2503 169.707 60.0557C168.476 66.4359 165.958 69.626 162.153 69.626H159.761C156.115 69.626 153.722 66.8346 152.583 61.252V60.4658C152.583 52.445 158.165 46.5889 169.331 42.8975V42.5215C166.665 41.9746 164.272 41.7012 162.153 41.7012H160.957C155.055 41.7012 149.472 43.1709 144.209 46.1104H143.012C137.68 45.1989 135.014 42.5329 135.014 38.1123C135.014 31.8005 141.531 27.8128 154.565 26.1494C158.165 25.876 160.82 25.7393 162.529 25.7393ZM161.743 72.4287H163.349C168.932 73.4769 171.723 76.2682 171.723 80.8027V81.1787C171.723 86.0094 168.397 88.8008 161.743 89.5527C157.915 89.5527 155.123 87.4336 153.369 83.1953V80.3926C153.369 76.2454 156.16 73.5908 161.743 72.4287Z" fill="#CCABDA"/>
<path d="M34.1631 85.7857L61.8645 74.5898L90.1015 75.258L116.462 85.9693L111.703 123.632C111.703 123.632 107.811 123.122 101.889 130.426L45.0988 128.605C45.0988 128.605 41.5284 121.368 34.1631 122.352V85.7857Z" fill="#F7C977"/>
<path d="M2.00098 245.425C2.00098 258.447 24.1887 269 51.5739 269C72.9965 269 136.688 260.788 143.604 251.729L73.7769 243.369L2.00098 245.425Z" fill="#D6D6D6"/>
<path d="M143.242 247.445C142.982 243.206 127.108 238.463 127.108 238.463C131.918 218.79 131.617 205.676 131.617 205.676C130.444 184.034 114.183 186.666 114.183 186.666L113.842 156.572C113.918 153.4 112.107 153.068 112.107 153.068C129.021 147.044 124.859 130.299 124.859 130.299C120.442 118.568 126.323 109.652 126.323 109.652C131.673 103.057 130.368 97.8692 130.368 97.8692C128.618 80.8077 108.716 73.9627 108.716 73.9627C96.7903 59.0025 79.8971 57.1306 79.8971 57.1306L72.8021 56.5645L65.6612 57.1357C65.6612 57.1357 48.7731 59.023 36.8479 73.9678C36.8479 73.9678 16.9555 80.8128 15.1957 97.8743C15.1957 97.8743 13.8849 103.062 19.2405 109.657C19.2405 109.657 25.1164 118.557 20.7044 130.304C20.7044 130.304 16.5627 147.049 33.456 153.073C33.456 153.073 31.6452 153.405 31.7166 156.577L31.38 186.671C31.38 186.671 15.16 184.034 13.9869 205.676C13.9869 205.676 13.6911 218.79 18.5009 238.463C18.5009 238.463 2.62272 243.206 2.36259 247.445C2.36259 247.445 -0.743686 258.498 11.2275 255.422C11.7375 255.315 53.0525 256.488 53.0525 256.488C53.0525 256.488 57.5564 254.78 57.1993 248.756C57.1993 249.363 71.4198 249.776 72.7358 249.832H72.8429C74.1589 249.791 88.359 249.363 88.3743 248.756C88.0223 254.78 92.5262 256.488 92.5262 256.488C92.5262 256.488 133.841 255.315 134.351 255.422C146.348 258.498 143.242 247.445 143.242 247.445Z" fill="#A0E9D8" stroke="#3B3054" stroke-width="3" stroke-miterlimit="10"/>
<path opacity="0.46" d="M62.2533 203.014C62.419 203.059 62.5747 203.135 62.7123 203.238C62.8228 203.31 62.9014 203.421 62.9316 203.549C62.9674 203.779 62.7378 203.957 62.544 204.095C60.9475 205.243 60.2181 207.232 59.7081 209.129C56.0356 222.901 59.6213 237.657 56.8823 251.628C56.7652 252.519 56.4516 253.372 55.9642 254.127C55.2501 255.086 54.077 255.571 52.9599 256.009C52.6996 256.134 52.412 256.192 52.1234 256.177C51.0574 256.019 51.8378 254.479 51.9959 253.903C52.2612 252.913 52.506 251.913 52.7151 250.914C53.1487 248.904 53.4904 246.879 53.7709 244.849C54.3371 240.769 54.6533 236.637 54.9492 232.521C55.546 224.36 55.4286 215.903 57.7698 207.997C57.9728 207.081 58.3042 206.199 58.7542 205.375C59.2152 204.68 59.7754 204.057 60.417 203.524C60.6585 203.296 60.9519 203.13 61.2719 203.041C61.5919 202.952 61.9288 202.943 62.2533 203.014Z" fill="#3B3054"/>
<path opacity="0.46" d="M86.7721 202.748C86.6056 202.785 86.4467 202.851 86.3029 202.942C86.1858 203.005 86.098 203.111 86.058 203.238C86.0121 203.473 86.2264 203.662 86.41 203.815C87.9402 205.059 88.0167 207.354 88.3992 209.282C91.1995 223.238 87.2108 237.489 89.0572 251.618C89.1176 252.514 89.3772 253.385 89.8172 254.168C90.465 255.188 91.6126 255.729 92.6991 256.239C92.9497 256.38 93.2323 256.456 93.5202 256.458C94.5914 256.366 93.9079 254.78 93.7906 254.198C93.5917 253.178 93.4131 252.158 93.2805 251.169C92.9745 249.128 92.7705 247.088 92.6123 245.048C92.3063 240.932 92.2502 236.8 92.2145 232.669C92.138 224.467 92.7858 216.056 90.9546 208.017C90.8074 207.09 90.5328 206.187 90.1385 205.335C89.7256 204.614 89.2101 203.958 88.6084 203.386C88.3795 203.135 88.0917 202.946 87.7711 202.835C87.4504 202.723 87.1071 202.694 86.7721 202.748V202.748Z" fill="#3B3054"/>
<path d="M57.0313 251.908C57.0313 251.908 58.8931 226.262 58.4799 214.382C58.3844 212.145 58.8233 209.918 59.7602 207.884C61.7392 203.691 66.1716 197.78 75.3476 198.193C75.3476 198.193 88.0992 197.005 89.1193 210.628C89.1625 211.308 89.1625 211.989 89.1193 212.669C88.8184 218.402 87.1505 253.351 91.2973 254.784C91.2973 254.784 95.3064 257.814 99.6878 256.146C100.706 255.814 101.807 255.832 102.814 256.197C103.758 256.488 104.89 256.162 106.13 256.162C108.17 256.162 105.227 256.427 110.236 255.973C111.327 255.871 111.766 256.162 114.413 255.861L111.409 75.5946L97.9434 64.664L72.8024 56.8906L61.1373 63.1797C59.3454 63.3818 57.6115 63.9384 56.0367 64.817L45.2234 66.8215L35.2211 75.5793L29.2432 255.376C29.2432 255.376 42.8516 256.187 45.3917 256.187C45.8281 256.156 46.2662 256.156 46.7026 256.187C49.2529 256.381 50.7219 256.187 53.6649 256.187C55.5725 256.187 55.2308 253.269 57.0313 251.908Z" stroke="#3B3054" stroke-width="2" stroke-miterlimit="10"/>
<path d="M71.786 123.03C80.8905 123.03 88.2712 117.305 88.2712 110.242C88.2712 103.18 80.8905 97.4551 71.786 97.4551C62.6815 97.4551 55.3008 103.18 55.3008 110.242C55.3008 117.305 62.6815 123.03 71.786 123.03Z" fill="#3B3054"/>
<path d="M35.7558 74.0036L34.5674 95.8802C34.5674 95.8802 45.192 78.8441 68.8384 73.6007C68.8384 73.6007 66.1453 65.8732 70.5879 56.6972C70.5879 56.6972 69.7157 56.279 67.1195 56.9217C60.4326 58.5743 46.2988 63.2719 35.7558 74.0036Z" fill="#3B3054"/>
<path d="M109.617 73.708L110.806 95.5794C110.806 95.5794 99.6762 78.9616 76.0297 73.7182C76.0297 73.7182 80.0286 66.1693 75.5859 56.9933C75.5859 56.9933 76.4632 56.5699 79.0595 57.2126C85.7464 58.855 99.0743 62.9763 109.617 73.708Z" fill="#3B3054"/>
<path d="M90.4091 143.331C90.4091 143.331 90.0419 149.656 81.4219 150.273C81.4219 150.273 72.9038 165.723 65.4926 150.273C65.4926 150.273 57.7805 149.447 54.9854 143.469C54.9854 143.469 67.1911 139.659 72.8732 127.458C72.8732 127.458 80.9271 144.897 90.4091 143.331Z" fill="#FC887B"/>
<path d="M98.3099 112.768C95.4127 107.31 91.2098 102.72 86.7621 98.4353C84.6351 96.395 82.4214 94.4109 80.6413 92.0442C78.8612 89.6775 77.5809 86.8518 77.5809 83.8832C77.5809 79.4559 80.4169 75.5335 81.233 71.1827C81.993 67.1022 80.9525 62.9503 79.6263 59.0432C79.4951 58.4903 79.1935 57.9925 78.7643 57.6201C78.2934 57.376 77.762 57.2732 77.2341 57.3243H73.5005H72.2406H68.5069C67.9771 57.2804 67.4458 57.3902 66.9768 57.6405C66.5395 58.0164 66.2339 58.5221 66.1046 59.084C64.7733 62.9911 63.7328 67.1634 64.4928 71.2235C65.3089 75.5743 68.1499 79.4967 68.1499 83.924C68.1499 86.8722 66.8544 89.6979 65.0895 92.085C63.3247 94.4721 61.1213 96.4409 58.9688 98.4761C54.5211 102.74 50.2977 107.372 47.4261 112.809C44.5545 118.246 43.009 124.591 44.1566 130.661C44.9217 134.675 46.9925 138.618 50.4763 140.755C54.2609 143.076 59.3258 142.882 63.1768 140.663C65.5342 139.263 67.472 137.255 68.7875 134.849C70.6747 131.467 71.3378 127.483 71.5724 123.658C71.6525 123.114 71.5819 122.558 71.3684 122.051C71.0631 121.574 70.6327 121.189 70.1238 120.939C67.3185 119.251 64.2938 117.813 61.9629 115.497C59.6319 113.181 58.1527 109.667 59.2799 106.591C60.0144 104.587 61.7588 103.072 63.7073 102.205C65.6963 101.413 67.806 100.966 69.9453 100.884C70.9655 100.807 72.1131 100.69 72.7303 99.8634C72.7711 99.8073 72.8119 99.7461 72.8476 99.6849C72.8819 99.7474 72.9211 99.8071 72.9649 99.8634C73.577 100.674 74.7297 100.792 75.7447 100.884C77.8841 100.966 79.9937 101.413 81.9828 102.205C83.9312 103.072 85.6807 104.587 86.4152 106.591C87.5374 109.652 86.0429 113.181 83.7323 115.497C81.4217 117.813 78.397 119.251 75.5713 120.939C75.0425 121.141 74.6046 121.528 74.3384 122.027C74.0722 122.527 73.9956 123.106 74.1227 123.658C74.3472 127.483 75.0204 131.467 76.9077 134.849C78.2231 137.255 80.1609 139.263 82.5183 140.663C86.3693 142.882 91.4342 143.076 95.224 140.755C98.7077 138.618 100.779 134.675 101.539 130.661C102.737 124.55 101.207 118.21 98.3099 112.768Z" fill="#78B8A5"/>
<path d="M113.586 223.093L113.795 173.153C113.795 173.153 79.2438 200.207 113.586 223.093Z" fill="#3B3054"/>
<path d="M30.916 221.692L31.8392 171.757C31.8392 171.757 65.7736 199.632 30.916 221.692Z" fill="#3B3054"/>
<path d="M57.8564 95.5491C59.6621 95.5491 61.1259 92.8704 61.1259 89.566C61.1259 86.2617 59.6621 83.583 57.8564 83.583C56.0507 83.583 54.5869 86.2617 54.5869 89.566C54.5869 92.8704 56.0507 95.5491 57.8564 95.5491Z" fill="#3B3054"/>
<path d="M88.2715 95.5491C90.0771 95.5491 91.5409 92.8704 91.5409 89.566C91.5409 86.2617 90.0771 83.583 88.2715 83.583C86.4658 83.583 85.002 86.2617 85.002 89.566C85.002 92.8704 86.4658 95.5491 88.2715 95.5491Z" fill="#3B3054"/>
<path d="M108.735 73.9834C108.735 73.9834 132.381 82.782 129.989 102.654C129.989 102.654 120.262 117.767 123.71 126.158C123.71 126.158 130.479 147.606 111.55 152.992C111.55 152.992 97.8244 157.904 106.699 139.996C106.699 139.996 111.509 99.3233 108.735 73.9834Z" fill="#3B3054"/>
<path d="M36.5514 73.9834C36.5514 73.9834 12.8998 82.782 15.292 102.654C15.292 102.654 25.0189 117.767 21.5709 126.158C21.5709 126.158 14.8075 147.606 33.7359 152.992C33.7359 152.992 47.4565 157.904 38.5814 139.996C38.5814 139.996 33.7716 99.3233 36.5514 73.9834Z" fill="#3B3054"/>
<path d="M85.3952 107.581C78.7644 109.142 73.7607 116.252 73.7607 124.806C73.7607 134.497 80.1977 142.357 88.1394 142.357C94.0255 142.357 99.0904 138.037 101.304 131.845" stroke="#3B3054" stroke-width="4" stroke-miterlimit="10" stroke-linecap="round"/>
<path d="M60.1771 107.525C66.9253 108.974 72.0463 116.156 72.0463 124.806C72.0463 134.497 65.6144 142.358 57.6727 142.358C51.6999 142.358 46.5738 137.91 44.4111 131.575" stroke="#3B3054" stroke-width="4" stroke-miterlimit="10" stroke-linecap="round"/>
<path d="M85.4099 107.581L83.7471 105.046" stroke="#3B3054" stroke-width="4" stroke-miterlimit="10"/>
</svg>