<svg xmlns="http://www.w3.org/2000/svg" viewBox="0 0 643.45 643.45"><defs><style>.cls-1,.cls-15,.cls-16{fill:none;}.cls-2{fill:#ffdd95;}.cls-3{fill:#3b3054;}.cls-4{fill:#86e3ce;}.cls-5{fill:#3b0954;}.cls-6{fill:#a87031;}.cls-7{fill:#a76f30;}.cls-8{fill:#ab9d80;}.cls-9{fill:#964d4b;}.cls-10{fill:#fffcfc;}.cls-11{fill:#fffbfb;}.cls-12{fill:#f5fbfb;}.cls-13{fill:#fff;}.cls-14{fill:#d8c1e5;}.cls-15,.cls-16{stroke:#3b3054;stroke-miterlimit:10;}.cls-15{stroke-linecap:round;stroke-width:6px;}.cls-16{stroke-width:5px;}</style></defs><g id="Layer_2" data-name="Layer 2"><g id="Layer_1-2" data-name="Layer 1"><circle class="cls-1" cx="321.73" cy="321.73" r="454.99"/><path class="cls-2" d="M498.94,310.2c.8,2.87,2,5.63,2.56,8.58a51.06,51.06,0,0,1-2.45,28,3.44,3.44,0,0,0,1.06,4.37c12.35,11.76,24.6,23.62,36.94,35.39a3.58,3.58,0,0,1,1.16,4.22c-1.9,6.3-3.55,12.68-5.31,19-.52,1.85-.64,1.9-2.48,1.49-5.39-1.2-8.32-4.89-8.31-10.48a11.86,11.86,0,0,1,.08-1.79,1.38,1.38,0,0,0-.85-1.66c-.46-.21-.89-.51-1.33-.76L482.75,375.4c-2.53-1.44-1.93-1.37-3.94.25a74.34,74.34,0,0,1-7.41,5.11,8,8,0,0,0,2.21,1.85q13.72,10,27.51,19.85a3,3,0,0,1,1.45,3.36c-1.14,6.75-2.17,13.52-3.2,20.29-.18,1.22-.75,1.48-1.9,1.43-5.61-.25-9.66-4.07-9.79-9.86,0-2.15-.91-2.89-2.65-3.63q-24.9-10.6-49.74-21.36a7.62,7.62,0,0,0-4-.73c-13.41,1.5-26.86,1.31-40.31,1.09-9.94-.17-19.88-.3-29.82-.05-7.63.19-15.21,1-22.79,1.83-12.78,1.38-25.56,2.67-38.43,3a171.86,171.86,0,0,1-29.47-1.57,3.84,3.84,0,0,0-3,1q-13.67,9.6-27.34,19.19c-7.15,5-14.32,10-21.43,15.09a2.75,2.75,0,0,1-3.41.22c-5.92-3.26-11.92-6.38-17.88-9.57-1.75-.94-1.73-1-.94-2.72,2.35-5.21,7-7.39,12.73-5.68a3,3,0,0,0,3.69-1.05c7.62-8.48,15.32-16.88,23-25.31.34-.37.63-.79.93-1.16a4.94,4.94,0,0,0-.36-.45c-1.88-1.7-3.61-1.26-5.74-.16-15.72,8.16-31.52,16.16-47.27,24.26a3.24,3.24,0,0,1-3.91-.24c-5.43-3.89-11-7.6-16.48-11.4-1.61-1.11-1.6-1.14-.6-2.78,2.93-4.86,7.69-6.54,13.05-4.29a3.38,3.38,0,0,0,4.22-.73c9.48-8.43,19-16.76,28.58-25.12.58-.51,1.15-1,1.73-1.54a.87.87,0,0,0,.14-1.34c-.36-.48-.7-1-1.05-1.45-8-11.34-13.86-23.79-18.93-36.64.58-1.21,1.73-.9,2.7-1,18.46-1.36,35.32-7.07,50.14-18.37a79.85,79.85,0,0,0,16.73-17.26c.84-1.18,1.66-2.51,3.5-1.92,8.84,1.41,17.75,1.36,26.66,1.49,13.8.2,27.58-.22,41.36-.92,12.91-.66,25.82-1.57,38.73-2.3,6.84-.39,13.7-.6,20.53-1.16,7.85-.65,15.71-1.28,23.57-1.83,13.78-1,27.56-1.26,41.28.82a73.38,73.38,0,0,1,22,6.6c.45.23.95.37,1.43.56.06,1-.81.94-1.4,1.15-2.1.71-4.23,1.34-6.36,2-1.53.47-1.77,1.13-.57,2.27,1,.94,1.94,1.93,2.91,2.9,3.8,3.8,7.64,7.59,11.41,11.43a6.6,6.6,0,0,0,6,2C493.53,310.53,496.19,309.61,498.94,310.2Z"/><path class="cls-2" d="M185.27,312.39c-1.63-4.13-3.3-8.25-4.87-12.41a2.4,2.4,0,0,0-2.45-1.7c-13.57-1.14-27.17-1.4-40.77-2a74.51,74.51,0,0,1-22.07-4.25,19.61,19.61,0,0,1-9.56-6.6c1.28-1.49,3.57-2.12,3.71-4.59.22-3.76.26-7.5-.91-11.14a2.25,2.25,0,0,0-1.91-1.51c-.74-.15-1.55-.12-2.09-.81,5.88-1.38,11.29-4.14,17.13-5.74s11.21-4.11,16.71-6.46,11.08-5,16.5-7.68,10.54-5.67,15.67-8.75a114.58,114.58,0,0,1,15.16-8.06,45.38,45.38,0,0,1,22.81-3.5c1,.12,2,.06,3.08.09,5.05.59,9.77,2,13.5,5.71-.49,1.44-1.77,1.11-2.8,1.13-2.91.08-5.82.05-8.73,0-1.78,0-2.54.48-1.89,2.44,2.37,7.06,4.95,14,7.27,21.13a9.15,9.15,0,0,0,3.55,4.29c4.25,3.18,8.41,6.48,12.67,9.65a31.8,31.8,0,0,0,10.47,4.74,16.09,16.09,0,0,1,2.93.93,2.8,2.8,0,0,1,1.32,1.49c.24,1.19-.57,1.9-1.26,2.64-16.39,17.67-36.77,27.7-60.4,31.48C187.07,313.13,186,313.54,185.27,312.39Z"/><path class="cls-3" d="M498.94,310.2a25.66,25.66,0,0,1-5.5,1,24.47,24.47,0,0,0-3.28.4,5.12,5.12,0,0,1-4.93-1.45q-8-8-15.93-15.95c-1.42-1.42-1.39-1.5.66-2.19,3-1,5.94-1.92,8.91-2.88,5.94-2.4,11.92-4.7,17.61-7.68,8.48-4.45,16.33-9.73,22.7-17A44.12,44.12,0,0,0,530,242.9a30.93,30.93,0,0,0-1.45-15.43c-1.58-4.71-3.78-9.17-5.68-13.75a5.35,5.35,0,0,1-.8-2.8c7.16.49,13.26,3.11,18,8.61a34.71,34.71,0,0,1,7.44,16.15,62.48,62.48,0,0,1-2.25,34.4c-3.1,8.53-8.49,15.61-14.92,21.9C521.39,300.69,511.15,307.16,498.94,310.2Z"/><path class="cls-3" d="M248.59,277.84c-7.12-1.16-13.19-4.45-18.65-9-2.41-2-4.92-4-7.49-5.78a12.68,12.68,0,0,1-5-6.85c-2.05-6.61-4.41-13.11-6.64-19.66-.17-.49-.29-1-.49-1.46-.31-.78.14-1.08.75-1.33a5.38,5.38,0,0,1,2-.19c3.09,0,6.17,0,9.25,0,.82,0,1.74.3,2.41-.49,2.34-.54,4.58.26,6.83.57a121.92,121.92,0,0,1,16.54,3.7,63.87,63.87,0,0,0,27.71,1.49c6.17-1,12.42-1.48,18.66-.24,1.16.23,2.41.25,3.33,1.17.58.76,1.51.73,2.29,1a55.46,55.46,0,0,1,11.33,4.75,21.16,21.16,0,0,1,5.61,4.44c2.84,3.32,3,6.74.5,10.33a21.8,21.8,0,0,1-3.89,4.08,69.3,69.3,0,0,1-29.4,14.49c-9.74,2.31-19.53,2-29.32.27a6.39,6.39,0,0,0-2-.18c-1,.69-1.85.08-2.76-.16C249.62,278.42,249.11,278.12,248.59,277.84Z"/><path class="cls-4" d="M250.25,278.25l2.65.6,10.38,7a2.63,2.63,0,0,0-2.31,1.33,81.13,81.13,0,0,1-26.59,24.48,88.58,88.58,0,0,1-29.46,10.86,96.78,96.78,0,0,1-13.48,1.56,6.09,6.09,0,0,0-1.23.29c-2-.08-2.82-1.23-3.36-3a62.26,62.26,0,0,0-2.68-7.12c-.63-1.4.21-1.54,1.1-1.83,2.77.38,5.41-.47,8-1A105,105,0,0,0,219,302.69a98.12,98.12,0,0,0,29.91-22.57,1.67,1.67,0,0,0,.53-1.13,2.51,2.51,0,0,0,0-.27.92.92,0,0,1,.34-.42A1.4,1.4,0,0,1,250.25,278.25Z"/><path class="cls-5" d="M297.82,239.7c-1.65.23-3.21-.39-4.81-.62a59.84,59.84,0,0,0-12.48-.05c-4,.26-7.95.91-11.94,1.28-8.34.77-16.21-1.15-24.12-3.21A90.87,90.87,0,0,0,228.7,234a13,13,0,0,1-3.95-1A36.37,36.37,0,0,0,212,227.77c-.21,0-.38-.3-.57-.45a32.78,32.78,0,0,1,13.72-.72c5.92.84,11.78,2,17.68,3a89.24,89.24,0,0,0,31.14,0c3.52-.66,7.1-1.06,10.67-1.44a18.87,18.87,0,0,1,9.07,1.2C298.41,231.25,299.88,235,297.82,239.7Z"/><path class="cls-3" d="M104.35,267.42c.34,0,.68.08,1,.08,3.12.06,3.67.68,4.22,3.82a44.43,44.43,0,0,1,.46,8.14c0,3.87-.79,4.88-4.5,6L103,285a10.13,10.13,0,0,1-7-4.74,6.92,6.92,0,0,1,.4-8.15A11.46,11.46,0,0,1,104.35,267.42Z"/><path class="cls-6" d="M251.55,378.77a10,10,0,0,1-3.2,6.82,4.06,4.06,0,0,1-2.75,1.18c-2,0-3-1.11-2.78-3.06a9.68,9.68,0,0,1,.51-2c.82-2.33,1.64-4.65,2.51-7,.73-2,1.82-2.3,3.51-1.12S251.48,376.64,251.55,378.77Z"/><path class="cls-6" d="M212.39,365.39a14.11,14.11,0,0,1,2-5.76,2.94,2.94,0,0,1,2.8-1.42c1.2.07,1.89,1,2.29,2.15a7.13,7.13,0,0,1-3.71,8.56,2.41,2.41,0,0,1-3.28-1.79A10.66,10.66,0,0,1,212.39,365.39Z"/><path class="cls-1" d="M158.87,294.65a23.83,23.83,0,0,1-12.2-3.73,12.89,12.89,0,0,1-3.37-3.46c-1.17-1.68-.82-2.65,1.18-3.08,4.08-.89,8.18-1.63,12.27-2.48q11.5-2.38,23-4.82a17.11,17.11,0,0,1,2-.36c.76-.06,1.58-.18,2.09.61s0,1.5-.36,2.14a32.55,32.55,0,0,1-6.32,8A28.23,28.23,0,0,1,158.87,294.65Z"/><path class="cls-3" d="M186.24,257.93c0,3.17-1.63,5-4.51,4.94a4.8,4.8,0,0,1-4.76-4.95,4.86,4.86,0,0,1,4.88-4.86C184.41,253.09,186.23,255.1,186.24,257.93Z"/><path class="cls-7" d="M189.79,244.12a3.1,3.1,0,0,1-4,3.06,5.91,5.91,0,0,1-4.24-3.36c-.49-1.16-.83-2.26,0-3.36a4.15,4.15,0,0,1,3.56-1.67C187.56,238.92,189.84,241.65,189.79,244.12Z"/><path class="cls-8" d="M248.59,277.84a1.75,1.75,0,0,1,1.66.41.25.25,0,0,1-.23.13.92.92,0,0,0-.5.39l-.11.22A2,2,0,0,1,248.59,277.84Z"/><path class="cls-9" d="M225.17,246.25c4.85-1.71,9.16-.8,13.44.56,3.9,1.25,7.72,2.74,11.73,3.67a82.41,82.41,0,0,0,20.59,2.15c5.47-.12,10.91-.67,16.36-.95a22.38,22.38,0,0,1,9.32,1.24c4.31,1.68,5.12,5.72,1.7,8.85a20.81,20.81,0,0,1-6.78,4.09,56.52,56.52,0,0,1-19.79,3.68c-4.11,0-8.24.17-12.34-.08-5.18-.33-10.39-.64-15.38-2.37a17.58,17.58,0,0,1-9.34-6.84C231.62,255.64,228.46,251.09,225.17,246.25Z"/><path class="cls-10" d="M195.39,313.63a3.12,3.12,0,0,1,3.06,3.11,3.24,3.24,0,0,1-3.11,3.11,3.09,3.09,0,0,1-3.1-3.3A2.87,2.87,0,0,1,195.39,313.63Z"/><path class="cls-10" d="M249.86,292.69a3.1,3.1,0,0,1-.29-6.2,3.18,3.18,0,0,1,3.37,3.09A3.14,3.14,0,0,1,249.86,292.69Z"/><path class="cls-10" d="M232.89,302.32a3,3,0,0,1,3.19,2.94,3.17,3.17,0,0,1-3.17,3.28,3.11,3.11,0,0,1-3-3.13A3,3,0,0,1,232.89,302.32Z"/><path class="cls-11" d="M216.71,313.05a3.1,3.1,0,0,1-3,3.12,3.29,3.29,0,0,1-3.2-3.3,3.23,3.23,0,0,1,3.25-3A3,3,0,0,1,216.71,313.05Z"/><path class="cls-12" d="M249.52,278.77c0-.37.23-.39.5-.39C250,278.7,249.83,278.82,249.52,278.77Z"/><path class="cls-13" d="M146.77,286.76c10.93-2,21.67-4.52,33.07-6.84C175,287,169,291.05,160.93,291.59,154.07,292.05,148.68,290.05,146.77,286.76Z"/><circle class="cls-14" cx="453.51" cy="185.44" r="57.54"/><path class="cls-15" d="M510,174.57A57.54,57.54,0,1,0,507.26,206"/><path class="cls-3" d="M509.71,173.13c-4.12-3.44-11.77-4.56-17-4.24,7.44,4.55,14.12,10.74,18.27,18.59,2.52-8.45,8.38-15.48,14.63-21.57C520.12,166.86,513.5,168.83,509.71,173.13Z"/><circle class="cls-16" cx="453.51" cy="185.44" r="4.96"/><line class="cls-15" x1="453.51" y1="180.48" x2="453.51" y2="149.18"/><line class="cls-15" x1="453.51" y1="190.41" x2="453.51" y2="210.56"/><line class="cls-15" x1="453.51" y1="129.01" x2="453.51" y2="136.42"/><line class="cls-15" x1="405.35" y1="185.44" x2="397.94" y2="185.44"/><line class="cls-15" x1="453.51" y1="234.47" x2="453.51" y2="241.88"/></g></g></svg>