<svg width="67" height="86" viewBox="0 0 67 86" fill="none" xmlns="http://www.w3.org/2000/svg">
<path d="M63.0245 32.6502C63.0245 49.0664 33.4986 80.4214 33.4986 80.4214C33.4986 80.4214 4 48.9569 4 32.6502C4.23352 24.9725 7.44519 17.6875 12.9543 12.3393C18.4635 6.99108 25.837 4 33.5122 4C41.1875 4 48.561 6.99108 54.0702 12.3393C59.5793 17.6875 62.791 24.9725 63.0245 32.6502Z" fill="#86E3CE" stroke="#3B3054" stroke-width="7" stroke-miterlimit="10"/>
<path d="M39.8705 53.8503C42.0137 53.8848 43.6403 53.1182 44.4364 51.2838C45.2925 49.2742 45.5066 47.0177 44.0284 45.3066C42.8051 43.8601 41.9266 42.1515 41.46 40.3113C40.407 36.5792 36.9484 34.2107 33.4069 34.6471C29.7228 35.1007 26.5296 38.4223 26.2984 42.1085C26.3014 42.4646 26.2262 42.8171 26.0783 43.1406C25.9303 43.4642 25.7131 43.7509 25.4423 43.9803C25.0041 44.347 24.5957 44.7483 24.2209 45.1803C22.6828 46.9803 22.4003 49.722 23.5389 51.6024C24.6261 53.3967 26.7436 54.1862 29.1664 53.6637C29.6774 53.5551 30.1823 53.4191 30.6788 53.256C32.6718 52.5686 34.8356 52.5686 36.8285 53.256C37.8644 53.6149 38.9146 53.9249 39.8705 53.8503ZM21.4215 25.0527C21.5071 27.691 22.717 30.1198 24.9772 31.9427C26.404 33.0911 28.1305 33.6394 29.9083 32.7753C31.6377 31.9313 32.2769 30.2403 32.2284 28.469C32.207 27.0048 31.8411 25.5665 31.1605 24.272C30.48 22.9776 29.5042 21.8638 28.3131 21.022C26.8349 19.9282 25.1227 19.7215 23.4618 20.6C21.8581 21.4555 21.4471 23.0287 21.4215 25.0527ZM42.5387 36.9897C42.5387 39.0883 42.8555 40.7218 44.5363 41.6348C46.2171 42.5477 47.898 42.209 49.3876 41.164C51.9131 39.3668 53.2657 36.8577 53.2829 33.7342C53.2829 32.0116 52.7949 30.3925 51.0598 29.5484C49.3248 28.7044 47.6754 29.1724 46.2428 30.2461C43.9085 31.9944 42.6443 34.3801 42.533 36.9869L42.5387 36.9897ZM13.7422 33.9179C13.7756 35.4031 14.1703 36.8573 14.8916 38.1536C15.6129 39.4498 16.639 40.5484 17.88 41.3534C20.9164 43.2281 23.9641 41.8185 24.3665 38.2902C24.7517 34.9055 23.3591 32.2614 20.7394 30.2231C19.2926 29.1063 17.6261 28.6958 15.931 29.5685C14.2359 30.4413 13.7422 32.0892 13.7422 33.9179ZM45.4809 25.7905C45.498 23.1034 45.2241 21.421 43.4319 20.511C41.5828 19.5779 39.8905 20.1492 38.398 21.3349C35.9781 23.2584 34.7253 25.7905 34.8595 28.9484C35.0193 32.3935 37.9728 34.1533 41.0063 32.5284C43.9913 30.9207 45.381 28.268 45.4809 25.7905Z" fill="white"/>
<path d="M39.8703 53.8514C38.9143 53.9145 37.8727 53.616 36.8254 53.2772C34.8325 52.5897 32.6687 52.5897 30.6757 53.2772C30.1792 53.4402 29.6743 53.5763 29.1633 53.6849C26.7405 54.1988 24.6231 53.4179 23.5358 51.6236C22.3943 49.7432 22.6797 47.0015 24.2178 45.2015C24.5927 44.7624 25.0021 44.3544 25.4421 43.9814C25.7129 43.752 25.93 43.4653 26.078 43.1417C26.226 42.8181 26.3012 42.4657 26.2982 42.1096C26.5293 38.4205 29.7226 35.1018 33.4039 34.6453C36.9453 34.2089 40.404 36.5803 41.457 40.3095C41.9236 42.1497 42.802 43.8584 44.0253 45.3048C45.5035 47.0273 45.298 49.281 44.4334 51.282C43.64 53.1193 42.0134 53.8858 39.8703 53.8514Z" fill="white"/>
<path d="M21.4211 25.0527C21.4525 23.0431 21.8578 21.4555 23.4672 20.6C25.1224 19.7215 26.8346 19.9282 28.3185 21.022C29.5085 21.8645 30.4832 22.9785 31.1627 24.273C31.8423 25.5674 32.2074 27.0053 32.2281 28.4691C32.2766 30.2346 31.6373 31.9141 29.908 32.7754C28.1302 33.6366 26.4094 33.0911 24.9768 31.9428C22.7167 30.1198 21.5068 27.6911 21.4211 25.0527Z" fill="white"/>
<path d="M42.5327 36.988C42.644 34.3783 43.9082 31.9927 46.2425 30.2443C47.6694 29.1706 49.3131 28.694 51.0595 29.5467C52.806 30.3993 53.294 32.0127 53.2826 33.7324C53.2654 36.8473 51.9128 39.365 49.3873 41.1622C47.9062 42.2158 46.2254 42.5316 44.536 41.633C42.8466 40.7344 42.5413 39.0894 42.5327 36.988Z" fill="white"/>
<path d="M13.7419 33.9174C13.7419 32.0887 14.2128 30.4552 15.9307 29.5681C17.6486 28.681 19.2924 29.1059 20.7392 30.2226C23.3589 32.2466 24.7515 34.905 24.3662 38.2898C23.9638 41.818 20.9161 43.2276 17.8798 41.353C16.6388 40.548 15.6127 39.4493 14.8914 38.1531C14.17 36.8569 13.7754 35.4026 13.7419 33.9174V33.9174Z" fill="white"/>
<path d="M45.4805 25.79C45.3807 28.259 43.9938 30.9117 41.0145 32.505C37.9811 34.1385 35.0275 32.3758 34.8591 28.948C34.725 25.79 35.9778 23.2579 38.3977 21.3345C39.8902 20.1488 41.5824 19.5775 43.4202 20.5191C45.2237 21.4292 45.4977 23.1115 45.4805 25.79Z" fill="white"/>
</svg>
