<svg width="50" height="64" viewBox="0 0 50 64" fill="none" xmlns="http://www.w3.org/2000/svg">
<path d="M37.8803 22.384C38.8932 20.6283 38.6763 18.6052 37.3958 17.8654C36.1153 17.1255 34.2562 17.949 33.2434 19.7048C32.2305 21.4605 32.4474 23.4836 33.7279 24.2234C35.0083 24.9633 36.8675 24.1397 37.8803 22.384Z" stroke="white" stroke-width="2" stroke-miterlimit="10"/>
<path d="M15.7734 24.661C17.0539 23.9211 17.2708 21.8981 16.2579 20.1423C15.245 18.3866 13.3859 17.5631 12.1055 18.3029C10.825 19.0428 10.6081 21.0659 11.6209 22.8216C12.6338 24.5773 14.4929 25.4008 15.7734 24.661Z" stroke="white" stroke-width="2" stroke-miterlimit="10"/>
<path d="M21.2262 19.7895C22.7427 19.3763 23.5307 17.4191 22.9863 15.418C22.4419 13.4169 20.7713 12.1296 19.2548 12.5428C17.7383 12.956 16.9502 14.9132 17.4946 16.9143C18.039 18.9154 19.7097 20.2027 21.2262 19.7895Z" stroke="white" stroke-width="2" stroke-miterlimit="10"/>
<path d="M31.9454 16.8681C32.4898 14.8671 31.7017 12.9099 30.1853 12.4967C28.6688 12.0835 26.9981 13.3707 26.4537 15.3718C25.9093 17.3729 26.6974 19.3301 28.2139 19.7433C29.7304 20.1565 31.401 18.8692 31.9454 16.8681Z" stroke="white" stroke-width="2" stroke-miterlimit="10"/>
<path d="M22.8271 21.8127C23.3251 21.3154 23.9998 21.0361 24.7032 21.0361C25.4067 21.0361 26.0814 21.3154 26.5793 21.8127L33.4303 28.5636C34.0435 29.1278 34.5363 29.8102 34.879 30.5699C35.2218 31.3296 35.4075 32.1509 35.425 32.9842C35.4425 33.8176 35.2913 34.6459 34.9807 35.4193C34.67 36.1927 34.2063 36.8953 33.6173 37.4847C33.0284 38.0741 32.3264 38.5383 31.5536 38.8492C30.7808 39.1601 29.9531 39.3113 29.1204 39.2938C28.2877 39.2763 27.4671 39.0905 26.708 38.7474C25.9489 38.4043 25.267 37.9112 24.7032 37.2976C24.145 37.932 23.4626 38.4451 22.6984 38.8051C21.9341 39.1651 21.1042 39.3644 20.2599 39.3907C19.4156 39.417 18.575 39.2697 17.7898 38.9579C17.0047 38.6461 16.2918 38.1764 15.6952 37.5779C15.0987 36.9795 14.6311 36.2649 14.3215 35.4784C14.0118 34.6919 13.8666 33.8502 13.8949 33.0053C13.9232 32.1604 14.1244 31.3303 14.486 30.5664C14.8476 29.8024 15.3619 29.1207 15.9972 28.5636L22.8271 21.8127Z" stroke="white" stroke-width="2" stroke-miterlimit="10"/>
<path d="M47.5117 24.0911C47.5117 36.7491 24.7453 60.9257 24.7453 60.9257C24.7453 60.9257 2 36.6647 2 24.0911C2.18006 18.1711 4.65646 12.5539 8.90435 8.43012C13.1522 4.30632 18.8378 2 24.7558 2C30.6739 2 36.3594 4.30632 40.6073 8.43012C44.8552 12.5539 47.3316 18.1711 47.5117 24.0911Z" stroke="white" stroke-width="4" stroke-miterlimit="10"/>
</svg>
