<svg width="226" height="204" viewBox="0 0 226 204" fill="none" xmlns="http://www.w3.org/2000/svg">
<path d="M222 70.9844C222 109.366 152.968 182.674 152.968 182.674C152.968 182.674 84 109.11 84 70.9844C84.546 53.0339 92.0549 36.0015 104.935 23.4974C117.816 10.9932 135.055 4 153 4C170.945 4 188.184 10.9932 201.065 23.4974C213.945 36.0015 221.454 53.0339 222 70.9844Z" fill="#86E3CE" stroke="#3B3054" stroke-width="7" stroke-miterlimit="10"/>
<path d="M167.865 120.55C172.876 120.63 176.679 118.838 178.54 114.549C180.542 109.851 181.042 104.575 177.586 100.575C174.726 97.1926 172.672 93.1979 171.581 88.8954C169.119 80.1697 161.033 74.6322 152.753 75.6524C144.14 76.713 136.674 84.4789 136.133 93.0972C136.14 93.9299 135.964 94.7539 135.618 95.5104C135.272 96.2668 134.765 96.9372 134.132 97.4735C133.107 98.3309 132.152 99.2691 131.276 100.279C127.68 104.488 127.019 110.898 129.681 115.294C132.223 119.489 137.174 121.335 142.839 120.113C144.033 119.86 145.214 119.542 146.375 119.16C151.034 117.553 156.093 117.553 160.753 119.16C163.175 119.999 165.63 120.724 167.865 120.55ZM124.731 53.2206C124.931 59.389 127.76 65.0674 133.044 69.3296C136.38 72.0145 140.417 73.2965 144.573 71.2761C148.616 69.3028 150.111 65.3493 149.998 61.208C149.948 57.7846 149.092 54.4219 147.501 51.3954C145.91 48.369 143.628 45.7649 140.844 43.7968C137.388 41.2394 133.384 40.7562 129.501 42.8101C125.752 44.8103 124.791 48.4885 124.731 53.2206ZM174.103 81.1295C174.103 86.0361 174.844 89.8553 178.774 91.9897C182.703 94.1242 186.633 93.3321 190.116 90.8889C196.021 86.6872 199.183 80.8208 199.223 73.518C199.223 69.4907 198.082 65.7051 194.026 63.7317C189.969 61.7584 186.113 62.8524 182.763 65.3628C177.306 69.4504 174.35 75.0282 174.09 81.1228L174.103 81.1295ZM106.777 73.9476C106.855 77.4199 107.777 80.82 109.464 83.8506C111.15 86.8811 113.549 89.4498 116.451 91.3319C123.55 95.7149 130.676 92.4193 131.616 84.1701C132.517 76.2565 129.261 70.0747 123.136 65.3091C119.754 62.6981 115.857 61.7382 111.894 63.7787C107.931 65.8192 106.777 69.6719 106.777 73.9476ZM180.982 54.9456C181.022 48.663 180.382 44.7297 176.192 42.602C171.868 40.4206 167.912 41.7563 164.422 44.5284C158.764 49.0255 155.835 54.9456 156.149 62.3289C156.523 70.3834 163.428 74.498 170.52 70.6989C177.499 66.9401 180.749 60.7381 180.982 54.9456Z" fill="white"/>
<path d="M167.865 120.552C165.63 120.7 163.195 120.002 160.746 119.21C156.087 117.602 151.028 117.602 146.368 119.21C145.207 119.591 144.027 119.909 142.832 120.163C137.168 121.364 132.217 119.538 129.675 115.343C127.006 110.947 127.673 104.537 131.27 100.328C132.146 99.3017 133.103 98.3478 134.132 97.4757C134.765 96.9394 135.273 96.269 135.619 95.5125C135.965 94.7561 136.14 93.9321 136.133 93.0994C136.674 84.4743 144.14 76.7151 152.747 75.6479C161.026 74.6277 169.113 80.1719 171.575 88.8909C172.666 93.1934 174.72 97.1881 177.58 100.57C181.036 104.597 180.555 109.866 178.534 114.545C176.679 118.84 172.876 120.632 167.865 120.552Z" fill="white"/>
<path d="M124.731 53.2223C124.804 48.5238 125.752 44.812 129.515 42.8118C133.384 40.7579 137.388 41.2412 140.857 43.7985C143.639 45.7681 145.918 48.3728 147.507 51.3992C149.096 54.4255 149.949 57.7875 149.998 61.2097C150.111 65.3376 148.617 69.2642 144.573 71.2779C140.417 73.2915 136.394 72.0162 133.044 69.3314C127.76 65.0692 124.931 59.3907 124.731 53.2223Z" fill="white"/>
<path d="M174.09 81.1246C174.35 75.0233 177.306 69.4456 182.763 65.3579C186.099 62.8476 189.942 61.7334 194.026 63.7269C198.109 65.7204 199.25 69.4926 199.223 73.5131C199.183 80.7958 196.021 86.6823 190.116 90.8841C186.653 93.3474 182.723 94.0857 178.774 91.9848C174.824 89.884 174.11 86.0379 174.09 81.1246Z" fill="white"/>
<path d="M106.777 73.9487C106.777 69.6731 107.877 65.8539 111.894 63.7799C115.911 61.7059 119.754 62.6992 123.136 65.3103C129.261 70.0423 132.517 76.2577 131.616 84.1713C130.676 92.4205 123.55 95.7161 116.451 91.3331C113.549 89.451 111.15 86.8823 109.464 83.8517C107.777 80.8212 106.855 77.421 106.777 73.9487V73.9487Z" fill="white"/>
<path d="M180.982 54.9468C180.749 60.7192 177.506 66.9212 170.54 70.6464C163.448 74.4656 156.543 70.3444 156.149 62.3301C155.835 54.9468 158.764 49.0267 164.422 44.5296C167.912 41.7575 171.868 40.4218 176.165 42.6233C180.382 44.7511 181.022 48.6844 180.982 54.9468Z" fill="white"/>
<path d="M107 114.996C107 143.643 55.4761 198.358 55.4761 198.358C55.4761 198.358 4 143.452 4 114.996C4.4075 101.598 10.012 88.8852 19.6256 79.5524C29.2393 70.2196 42.1065 65 55.5 65C68.8935 65 81.7607 70.2196 91.3744 79.5524C100.988 88.8852 106.592 101.598 107 114.996Z" fill="#FFDD95" stroke="#3B3054" stroke-width="7" stroke-miterlimit="10"/>
<path d="M40.7586 95H41.0871C45.7805 95 47.7987 98.8486 47.7987 106.546V111.709H48.0803C51.3779 111.261 54.7026 111.041 58.0304 111.052H58.6875C60.1425 111.052 62.4892 111.052 65.7277 111.38L64.4605 101.993V100.773C65.1175 96.9243 67.0575 95 70.2803 95H71.219C75.9125 95 78.3061 99.9281 78.3061 109.784C78.3061 131.562 77.3205 142.638 75.3962 142.638C74.1252 143.841 72.452 144.527 70.7027 144.563H70.2803C66.197 143.718 64.1788 141.888 64.1788 139.118C64.1788 136.349 64.5074 130.952 65.1175 124.663C62.2909 123.981 59.3885 123.666 56.4816 123.724C53.459 123.817 50.4471 124.131 47.4702 124.663C47.2824 131.296 47.1886 135.896 47.1886 138.461C46.6254 143.155 44.3725 145.83 40.43 145.83C36.159 144.891 34 142.873 34 139.588C34.6571 123.943 34.9856 113.899 34.9856 109.456C34.9439 106.878 34.7244 104.306 34.3285 101.759C35.1264 97.2529 37.2385 95 40.7586 95Z" fill="white"/>
</svg>
