<svg xmlns="http://www.w3.org/2000/svg" viewBox="0 0 356.85 324.53"><defs><style>.cls-1,.cls-4{fill:none;stroke:#3b3054;stroke-linecap:round;stroke-miterlimit:10;}.cls-1{stroke-width:14px;}.cls-2{fill:#86e2ce;}.cls-3{fill:#fff;}.cls-4{stroke-width:10px;}.cls-5{fill:#ccabda;}</style></defs><g id="Layer_2" data-name="Layer 2"><g id="Layer_1-2" data-name="Layer 1"><path class="cls-1" d="M18.16,202.55,170,11a10.46,10.46,0,0,1,16.17-.27L349.85,203.48"/><path class="cls-2" d="M174.29,33.77,56.38,183.92a5.69,5.69,0,0,0-1.12,4.61L80.39,319.71A5.73,5.73,0,0,0,86,324.35H271.39a5.72,5.72,0,0,0,5.52-4.22l35.74-131.24a5.71,5.71,0,0,0-1.17-5.22L183.14,33.58A5.73,5.73,0,0,0,174.29,33.77Z"/><path class="cls-3" d="M213.47,292.09c-4.43.29-9.26-1.09-14.11-2.66a43.63,43.63,0,0,0-28.5,0,70.34,70.34,0,0,1-7,1.89c-11.23,2.38-21-1.24-26.08-9.55-5.29-8.72-4-21.42,3.16-29.76a49.77,49.77,0,0,1,5.68-5.66,11.26,11.26,0,0,0,4-8.67c1.07-17.1,15.87-32.48,32.93-34.59,16.41-2,32.44,9,37.32,26.25a57.93,57.93,0,0,0,11.9,23.15c6.85,8,5.9,18.42,1.89,27.69C230.93,288.7,223.4,292.25,213.47,292.09Z"/><path class="cls-3" d="M128,158.64c.15-9.31,2-16.67,9.48-20.64,7.67-4.07,15.61-3.11,22.49,2a43,43,0,0,1,18.11,34.51c.23,8.18-2.74,16-10.75,19.95-8.24,4-16.21,1.47-22.85-3.85C134,182.12,128.37,170.86,128,158.64Z"/><path class="cls-3" d="M225.8,214c.52-12.1,6.38-23.15,17.19-31.25,6.62-5,14.23-7.19,22.33-3.24s10.35,11.43,10.3,19.4c-.08,14.43-6.35,26.1-18.05,34.43-6.87,4.88-14.65,6.34-22.48,2.18S225.84,223.68,225.8,214Z"/><path class="cls-3" d="M92.39,199.72c0-8.48,2.18-16.05,10.14-20.16s15.58-2.14,22.28,3C137,192,143.41,204.29,141.62,220c-1.86,16.35-16,22.88-30.06,14.19a42.17,42.17,0,0,1-19.17-34.45Z"/><path class="cls-3" d="M239.46,162.05c-.46,11.45-6.89,23.74-20.69,31.12-14.06,7.57-27.75-.6-28.53-16.48-.62-14.64,5.19-26.37,16.4-35.28,6.92-5.5,14.76-8.14,23.28-3.78C238.27,141.85,239.54,149.64,239.46,162.05Z"/><path class="cls-4" d="M5,249.55,96.68,133.83a6.32,6.32,0,0,1,9.77-.16l98.88,116.44"/><path class="cls-5" d="M97.63,151.2,28.76,238.9a5.74,5.74,0,0,0-1.12,4.61l14.63,76.38a5.73,5.73,0,0,0,5.62,4.64H156.26a5.73,5.73,0,0,0,5.52-4.22l20.81-76.44a5.72,5.72,0,0,0-1.17-5.22L106.48,151A5.73,5.73,0,0,0,97.63,151.2Z"/><path class="cls-3" d="M77.66,210.08h.59c8.38,0,12,6.88,12,20.63v9.23h.5a130.47,130.47,0,0,1,17.78-1.18h1.17a115.77,115.77,0,0,1,12.58.59L120,222.58V220.4q1.76-10.32,10.4-10.32h1.68c8.38,0,12.66,8.81,12.66,26.42,0,38.91-1.76,58.7-5.2,58.7a12.55,12.55,0,0,1-8.39,3.44h-.75c-7.3-1.51-10.9-4.78-10.9-9.73s.58-14.59,1.67-25.83a60.69,60.69,0,0,0-15.43-1.67,110.13,110.13,0,0,0-16.1,1.67q-.5,17.79-.5,24.66c-1,8.39-5,13.17-12.08,13.17-7.63-1.68-11.49-5.29-11.49-11.16q1.77-41.92,1.76-53.84a99,99,0,0,0-1.17-13.75C67.59,214.11,71.37,210.08,77.66,210.08Z"/></g></g></svg>