<svg width="70" height="90" viewBox="0 0 70 90" fill="none" xmlns="http://www.w3.org/2000/svg">
<path d="M66.0651 34.1261C66.0651 51.388 35.0182 84.3582 35.0182 84.3582C35.0182 84.3582 4 51.2729 4 34.1261C4.24555 26.0528 7.62266 18.3926 13.4156 12.7689C19.2085 7.14517 26.962 4 35.0326 4C43.1032 4 50.8566 7.14517 56.6495 12.7689C62.4425 18.3926 65.8196 26.0528 66.0651 34.1261Z" fill="#FFDD95" stroke="#3B3054" stroke-width="7" stroke-miterlimit="10"/>
<path d="M26.1497 22.0771H26.3477C29.1758 22.0771 30.3919 24.3962 30.3919 29.0344V32.1454H30.5616C32.5486 31.8754 34.552 31.7431 36.5573 31.7494H36.9532C37.8299 31.7494 39.244 31.7494 41.1954 31.9474L40.4318 26.2911V25.5558C40.8278 23.2367 41.9967 22.0771 43.9387 22.0771H44.5044C47.3325 22.0771 48.7749 25.0467 48.7749 30.9858C48.7749 44.1084 48.181 50.7828 47.0214 50.7828C46.2555 51.5074 45.2473 51.9207 44.1933 51.9424H43.9387C41.4782 51.4333 40.2621 50.3303 40.2621 48.6617C40.2621 46.9931 40.4601 43.7408 40.8278 39.951C39.1245 39.5406 37.3756 39.3505 35.624 39.3854C33.8026 39.4416 31.9878 39.6306 30.1939 39.951C30.0808 43.9482 30.0242 46.7197 30.0242 48.2658C29.6849 51.0939 28.3274 52.706 25.9517 52.706C23.3781 52.1404 22.0771 50.9243 22.0771 48.9446C22.4731 39.5174 22.6711 33.4652 22.6711 30.7878C22.6459 29.2345 22.5136 27.6848 22.2751 26.1497C22.7559 23.4347 24.0286 22.0771 26.1497 22.0771Z" fill="white"/>
</svg>
