<svg width="80" height="68"  xmlns="http://www.w3.org/2000/svg" viewBox="0 0 308.84 345.51"><defs><style>.cls-1{fill:#ccabda;}.cls-2{fill:#ffdd95;}</style></defs><g id="Layer_2" data-name="Layer 2"><g id="Layer_1-2" data-name="Layer 1"><path class="cls-1" d="M50,307.82C49.92,320.23,37.81,328.7,26.15,328c-.52,4.45-1,10.77-4.68,14-2.6,2.38-6.84,3.12-8.47-1.63-.67-2.38.67-4.61,1.34-6.91,3.26-9.73,4.82-20.88,5.71-31-.22-4.46,4.91-5.05,5.95-.15.89,5.28.81,11.82.59,17.76,0,.74-.22,2.45-.3,3.34,16-1.78,22.59-26.3,2-26.59A26.75,26.75,0,0,0,14,300.69c-3.2,2-4.83,4.68-4.24,8.1.67,3.86-2.52,6.09-5.49,4.16-4.61-2.75-5.43-9.07-2.9-13.82A19.69,19.69,0,0,1,8.09,292C22.14,282.93,50,285.83,50,307.82Z"/><path class="cls-1" d="M78.74,332.26a9.85,9.85,0,0,1-1.64,3.49,14,14,0,0,1-8,5.2,12.61,12.61,0,0,1-11.37-2.52C53,334.42,51,327.28,52.29,321a21.69,21.69,0,0,1,5.79-10.85c9-8.54,23.33-3.71,20.06,9.51-1.85,5.95-8.54,10.25-14.78,9.66,1.93,4.46,5.79,3,8.62-.52A3.86,3.86,0,0,1,78.74,332.26Zm-17-8.24v.29c3.56-.37,7.65-1.71,9.58-5.72,3.42-6.54-3.27-8-6.76-3.94A16.12,16.12,0,0,0,61.73,324Z"/><path class="cls-1" d="M111.49,316c-3.49.6-7.57,0-11.29-.44h-.07c-.67,5-2,15.75,1.56,20.2,1.48,1.93,3.86,1.42,6.31-.89,3.57-3.42,8,1,5.13,5.65-2.3,3.56-6.83,4.83-10.55,4.53-12.78-1.19-14.41-19.32-14.19-29.64h-4.9c-2.6.29-4-3.12-.15-4.31,1.71-.45,3.49-.89,5.35-1.19.3-5.87.74-12,2.82-17.9,3.27-8.62,14.27-6.91,11.89,2.89A125.91,125.91,0,0,0,101.17,308c3.42-.45,8.25-1.12,11.51.74C115.36,310.27,115.14,315.17,111.49,316Z"/><path class="cls-1" d="M190,307.82c-.07,12.41-12.18,20.88-23.84,20.21-.52,4.45-1,10.77-4.68,14-2.61,2.38-6.84,3.12-8.47-1.63-.67-2.38.66-4.61,1.33-6.91,3.27-9.73,4.83-20.88,5.72-31-.22-4.46,4.91-5.05,6-.15.89,5.28.81,11.82.59,17.76,0,.74-.22,2.45-.3,3.34,16-1.78,22.59-26.3,2-26.59a26.73,26.73,0,0,0-14.26,3.86c-3.2,2-4.83,4.68-4.24,8.1.67,3.86-2.52,6.09-5.5,4.16-4.6-2.75-5.42-9.07-2.89-13.82a19.69,19.69,0,0,1,6.68-7.13C162.15,282.93,190,285.83,190,307.82Z"/><path class="cls-1" d="M219.94,338.65c-3.86.22-7.2-2.45-7.57-7.21-4.16,5.06-13.23,5.73-18,.08-8.91-10.48,5.72-31,19.61-23,5.94,3.42-2.3,10-4.68,7.06-3.86-4.68-10.84,1.26-10.92,7.28-.07,3,1.86,5.72,5.72,4.24,4.46-1.71,6.24-5.95,8.77-9.59,2.3-3.27,10.1-2.15,9.06,2.45-.52,2.75-4.46,13.38-1.34,15A1.86,1.86,0,0,1,219.94,338.65Z"/><path class="cls-1" d="M272.61,314.21c.3,6.61-.52,14-5,19.61-5.64,7.51-17.3,4.9-21.46-4.75a11.7,11.7,0,0,1-5.06,7.87c-8.39,5.2-16-2.6-16.41-11.51-.23-4,.59-10.18,3.12-14.34,4.9-7.73,12-2,9.43,5.5a28.24,28.24,0,0,0-2,8.09c-.74,9,6.17,9.88,6.84-.89.74-6.46,6.32-8,6.32-.3-.67,10,11.51,10.41,13.74-.07,1.26-6.61-2.75-16.79-2.83-22.06-.07-6.32,6.47-7.43,9.51-3.05C271,301.36,272.39,310.05,272.61,314.21Z"/><path class="cls-1" d="M305.15,339.69c-7.21,8.32-21.47,7.73-27-1.78-1.56-2.45-2.38-6.32-.22-8.77,2-2.3,4.38-.89,6.09,1.26,1.63,2.75,4.6,5.65,8.17,5.65,5.13,0,9.21-6.09,5.87-9.51-4.38-4.38-12-3.27-16.94-7.87a10.28,10.28,0,0,1-2.45-11.37c5.65-13.89,34-11.07,26.45,4.68a7.53,7.53,0,0,1-4.53,4,3.4,3.4,0,0,1-3.72-4,3.22,3.22,0,0,1,1.19-1.78c1.93-1.93,2.53-4.24-1-5.2-4.76-1.19-14,1.48-12.56,6.31.67,2.38,3.49,3.64,6.62,4.53,5.34,1.56,11.14,1.79,15.22,6.84S309.23,334.79,305.15,339.69Z"/><ellipse class="cls-1" cx="245.22" cy="83.69" rx="37.32" ry="27.34" transform="translate(50.13 254.21) rotate(-60)"/><ellipse class="cls-1" cx="63.62" cy="83.69" rx="27.34" ry="37.32" transform="translate(-33.32 43.02) rotate(-30)"/><ellipse class="cls-1" cx="113.31" cy="37.68" rx="28.87" ry="38.24" transform="translate(-5.92 31.09) rotate(-15.23)"/><ellipse class="cls-1" cx="192.76" cy="37.68" rx="38.24" ry="28.87" transform="matrix(0.26, -0.96, 0.96, 0.26, 105.76, 213.76)"/><path class="cls-1" d="M135.11,82.85a27,27,0,0,1,38.18,0l69.61,69.61c63.44,63.45-25.26,152.15-88.7,88.7C92.62,302.74,3.92,214,65.5,152.46Z"/><path class="cls-2" d="M194.67,156.26c-.13,20.74-20.38,34.91-39.88,33.79-.87,7.45-1.62,18-7.83,23.35-4.34,4-11.43,5.22-14.16-2.73-1.12-4,1.12-7.7,2.24-11.55,5.46-16.28,8.07-34.91,9.56-51.81-.37-7.45,8.2-8.44,9.94-.25,1.49,8.82,1.37,19.76,1,29.7,0,1.24-.37,4.1-.49,5.59,26.71-3,37.76-44,3.35-44.48-8.45-.12-17.51,2.36-23.85,6.46-5.34,3.36-8.07,7.83-7.08,13.54,1.12,6.46-4.22,10.19-9.19,7-7.71-4.6-9.07-15.16-4.85-23.11,2.49-4.84,6.46-8.69,11.18-11.92C148.08,114.64,194.67,119.49,194.67,156.26Z"/></g></g></svg>