<svg width="215" height="227" xmlns="http://www.w3.org/2000/svg" viewBox="0 0 392.08 288.48"><defs><style>.cls-1,.cls-11{isolation:isolate;}.cls-2{fill:#d6d6d6;}.cls-3{fill:#86e3ce;}.cls-4{fill:#9b463d;opacity:0.26;mix-blend-mode:multiply;}.cls-12,.cls-16,.cls-5,.cls-6,.cls-8{fill:none;}.cls-10,.cls-12,.cls-16,.cls-5{stroke:#3b3054;}.cls-16,.cls-5,.cls-8{stroke-linecap:round;}.cls-5,.cls-8{stroke-linejoin:round;}.cls-5{stroke-width:5.24px;}.cls-6{stroke:#000;}.cls-10,.cls-12,.cls-16,.cls-6{stroke-miterlimit:10;}.cls-7{opacity:0.24;}.cls-8{stroke:#a83727;stroke-width:1.75px;}.cls-9{fill:#f7c977;}.cls-10{fill:#ffdd95;stroke-width:5px;}.cls-11,.cls-13{fill:#3b3054;}.cls-11{opacity:0.46;}.cls-12,.cls-16{stroke-width:4px;}.cls-14{fill:#fc887b;}.cls-15{fill:#efc786;}.cls-17{fill:#ccabda;}</style></defs><g class="cls-1"><g id="Layer_2" data-name="Layer 2"><g id="Layer_1-2" data-name="Layer 1"><path class="cls-2" d="M10.67,246.62c0,13,22.16,23.54,49.5,23.54,21.4,0,39.63-6.46,46.54-15.5l-51.77,3.73Z"/><path class="cls-3" d="M99.59,245.3a6.69,6.69,0,0,0-3.88.34c-7.82,3.08-21.51,5.13-37.09,5.13-24.3,0-44-5-44-11.11,0-5.43,15.42-9.95,35.8-10.92l1.41-7.43C23.87,223,2.62,231.69,2.62,242.1c0,11.66,26.66,21.11,59.56,21.11,14.4,0,27.61-1.81,37.91-4.83a6.74,6.74,0,0,0-.5-13.08Z"/><path class="cls-4" d="M76.25,249.84l21.33-4.65s5.59.6,6.62,3.56a7.54,7.54,0,0,1-1.85,8.16S100.93,245.19,76.25,249.84Z"/><path class="cls-5" d="M99.59,245.3a6.69,6.69,0,0,0-3.88.34c-7.82,3.08-21.51,5.13-37.09,5.13-24.3,0-44-5-44-11.11,0-5.43,15.42-9.95,35.8-10.92l1.41-7.43C23.87,223,2.62,231.69,2.62,242.1c0,11.66,26.66,21.11,59.56,21.11,14.4,0,27.61-1.81,37.91-4.83a6.74,6.74,0,0,0-.5-13.08Z"/><path class="cls-3" d="M95.43,89.21a78,78,0,0,0-46.26-.06C44.88,79.05,39,70.83,32.8,65.72a2,2,0,0,0-3,.59C17.43,88.56,11.91,114,14.25,141.81c2.15,31,14.09,65.14,25.43,100.35h65.26c11.38-35.22,23.2-68.94,25.41-99.55,2.43-28-3.15-53.52-15.83-76a2,2,0,0,0-3.06-.57C105.37,71.18,99.64,79.28,95.43,89.21Z"/><path class="cls-4" d="M77.72,131c0,1.65-2.46,3-5.5,3s-5.5-1.34-5.5-3l5.57-1.25Z"/><path class="cls-4" d="M95,241.54a34.17,34.17,0,0,1,.67-6.45c5.85-26.07,2-34.11,2-34.11L85.3,241.64Z"/><path class="cls-4" d="M48.55,241.54a34.17,34.17,0,0,0-.67-6.45C42,209,45.87,201,45.87,201l12.37,40.66Z"/><path class="cls-5" d="M95.43,89.21a78,78,0,0,0-46.26-.06C44.88,79.05,39,70.83,32.8,65.72a2,2,0,0,0-3,.59C17.43,88.56,11.91,114,14.25,141.81c2.15,31,14.09,65.14,25.43,100.35h65.26c11.38-35.22,23.2-68.94,25.41-99.55,2.43-28-3.15-53.52-15.83-76a2,2,0,0,0-3.06-.57C105.37,71.18,99.64,79.28,95.43,89.21Z"/><circle cx="53.79" cy="106.96" r="3.56"/><circle cx="90.68" cy="106.96" r="3.56"/><path d="M75.2,118.92a30.5,30.5,0,0,0-5.89,0c-.91.09-1.25,1-.53,1.5s1.23.82,1.85,1.26a3,3,0,0,0,3.26,0c.61-.44,1.23-.86,1.84-1.26S76.11,119,75.2,118.92Z"/><path class="cls-3" d="M97.58,202.26c-.75,13.12-6.83,26.88-11,40H72.22l.1-36.93"/><path class="cls-3" d="M46.86,202.26c.75,13.12,8.16,26.88,12.37,40h13l-.1-36.93"/><path class="cls-6" d="M80.4,130.6a5.77,5.77,0,0,1-2.77.69,5.12,5.12,0,0,1-5.37-4.83"/><path class="cls-6" d="M64.07,130.6a5.81,5.81,0,0,0,2.78.69,5.12,5.12,0,0,0,5.37-4.83"/><path class="cls-5" d="M97.58,202.26c-.75,13.12-8.16,26.88-12.37,40h-13l.1-36.93"/><path class="cls-5" d="M46.86,202.26c.75,13.12,6.83,26.88,11,40H72.22l-.1-36.93"/><path class="cls-4" d="M102,94.33c3.3-10.09,8.07-12.66,8.07-12.66s3.48,1.28,3.48,15"/><path class="cls-4" d="M42.44,94.33c-3.3-10.09-8.07-12.66-8.07-12.66s-3.49,1.28-3.49,15"/><line class="cls-5" x1="64.31" y1="236.94" x2="65.42" y2="241.94"/><line class="cls-5" x1="80.13" y1="236.94" x2="79.02" y2="241.94"/><g class="cls-7"><path class="cls-8" d="M92.17,128.67a40.45,40.45,0,0,0,16.29.89"/><path class="cls-8" d="M90.66,132.05a46.84,46.84,0,0,0,14.85,6.34"/><path class="cls-8" d="M92.17,123.87a36.54,36.54,0,0,0,13.34-3.61"/><path class="cls-8" d="M52.26,128.67a40.39,40.39,0,0,1-16.28.89"/><path class="cls-8" d="M53.77,132.05a46.69,46.69,0,0,1-14.84,6.34"/><path class="cls-8" d="M52.26,123.87a36.55,36.55,0,0,1-13.33-3.61"/></g><path class="cls-9" d="M238.19,42.8l38.32-15.44,39.06.93L352,43.06,345.45,95s-5.38-.7-13.57,9.37l-78.56-2.51s-4.94-10-15.13-8.62Z"/><path class="cls-2" d="M193.7,262.38c0,14.41,30.69,26.1,68.57,26.1,29.64,0,117.74-9.09,127.31-19.12L293,260.1Z"/><path class="cls-10" d="M389.08,265.72c-.36-5.84-22.32-12.38-22.32-12.38,6.66-27.13,6.24-45.22,6.24-45.22-1.62-29.84-24.12-26.21-24.12-26.21l-.47-41.5c.11-4.37-2.4-4.83-2.4-4.83,23.4-8.31,17.64-31.4,17.64-31.4a33,33,0,0,1,2-28.47c7.4-9.09,5.59-16.24,5.59-16.24-2.42-23.53-29.95-33-29.95-33A65,65,0,0,0,301.45,3.29l-9.81-.78-9.88.79A65.07,65.07,0,0,0,241.9,26.51s-27.51,9.44-30,33c0,0-1.81,7.16,5.6,16.25a33,33,0,0,1,2,28.47s-5.73,23.09,17.64,31.4c0,0-2.5.46-2.4,4.83l-.47,41.5s-22.44-3.64-24.06,26.2c0,0-.41,18.09,6.24,45.22,0,0-22,6.54-22.32,12.38,0,0-4.3,15.24,12.26,11,.71-.15,57.86,1.47,57.86,1.47s6.23-2.35,5.74-10.66c0,.84,19.67,1.41,21.49,1.48h.15c1.82-.05,21.46-.64,21.48-1.48-.49,8.31,5.74,10.66,5.74,10.66s57.16-1.62,57.86-1.47C393.38,281,389.08,265.72,389.08,265.72Z"/><path class="cls-11" d="M277.05,204.45a2.06,2.06,0,0,1,.63.31.68.68,0,0,1,.31.43c.05.32-.27.56-.54.75-2.21,1.59-3.22,4.33-3.92,6.95-5.08,19-.12,39.33-3.91,58.6a8.43,8.43,0,0,1-1.27,3.45,9,9,0,0,1-4.16,2.59,2.42,2.42,0,0,1-1.15.23c-1.48-.21-.4-2.34-.18-3.13.37-1.37.7-2.75,1-4.13.6-2.77,1.08-5.56,1.46-8.36.79-5.62,1.23-11.32,1.63-17,.83-11.25.67-22.91,3.91-33.82a13.7,13.7,0,0,1,1.36-3.61,11.64,11.64,0,0,1,2.3-2.55,2.73,2.73,0,0,1,1.18-.67A3,3,0,0,1,277.05,204.45Z"/><path class="cls-11" d="M311,204.09a2.16,2.16,0,0,0-.65.26.69.69,0,0,0-.34.41c-.07.33.23.59.48.8,2.12,1.71,2.23,4.88,2.76,7.54,3.87,19.24-1.65,38.89.91,58.38a8.23,8.23,0,0,0,1.05,3.51c.89,1.41,2.48,2.15,4,2.86a2.39,2.39,0,0,0,1.14.3c1.48-.13.54-2.31.37-3.12-.27-1.4-.52-2.81-.7-4.17-.42-2.82-.71-5.63-.93-8.44-.42-5.68-.5-11.38-.55-17.07-.1-11.31.79-22.91-1.74-34a13.78,13.78,0,0,0-1.13-3.7,11.89,11.89,0,0,0-2.11-2.68,2.79,2.79,0,0,0-1.16-.76A2.71,2.71,0,0,0,311,204.09Z"/><path class="cls-12" d="M269.82,271.88s2.58-35.37,2-51.75a19.35,19.35,0,0,1,1.77-9c2.74-5.78,8.87-13.93,21.56-13.36,0,0,17.64-1.64,19,17.14a22.11,22.11,0,0,1,0,2.82c-.41,7.9-2.72,56.1,3,58.07,0,0,5.55,4.18,11.61,1.88a6.69,6.69,0,0,1,4.33.07c1.3.4,2.87-.05,4.58-.05,2.82,0-1.25.37,5.68-.26,1.51-.14,2.12.26,5.78-.15L345.05,28.75,326.42,13.68,291.64,3,275.5,11.63a18.88,18.88,0,0,0-7.05,2.26l-15,2.76L239.65,28.73l-8.27,247.93s18.83,1.12,22.34,1.12a11.06,11.06,0,0,1,1.82,0c3.52.26,5.56,0,9.63,0C267.81,277.78,267.33,273.75,269.82,271.88Z"/><path class="cls-13" d="M290.24,96.15c12.59,0,22.8-7.9,22.8-17.64s-10.21-17.63-22.8-17.63-22.81,7.89-22.81,17.63S277.64,96.15,290.24,96.15Z"/><path class="cls-13" d="M240.39,26.56l-1.64,30.16S253.45,33.23,286.16,26c0,0-3.73-10.66,2.42-23.31,0,0-1.21-.58-4.8.31C274.53,5.28,255,11.76,240.39,26.56Z"/><path class="cls-13" d="M342.57,26.15l1.64,30.16s-15.39-22.92-48.1-30.15a26.77,26.77,0,0,0-.62-23.06s1.22-.59,4.81.3C309.55,5.67,328,11.35,342.57,26.15Z"/><path class="cls-14" d="M316,122.15s-.51,8.73-12.44,9.58c0,0-11.78,21.3-22,0,0,0-10.67-1.14-14.54-9.39,0,0,16.89-5.25,24.75-22.07C291.74,100.27,302.88,124.31,316,122.15Z"/><path class="cls-15" d="M326.93,80c-4-7.53-9.83-13.86-16-19.76a76.72,76.72,0,0,1-8.47-8.82,19,19,0,0,1-4.23-11.25c0-6.11,3.92-11.51,5.05-17.51,1.05-5.63-.39-11.36-2.22-16.74a3.77,3.77,0,0,0-1.19-2,3.88,3.88,0,0,0-2.12-.4H285.7a3.9,3.9,0,0,0-2.12.43,3.71,3.71,0,0,0-1.2,2c-1.85,5.39-3.29,11.14-2.23,16.74,1.12,6,5.05,11.41,5.05,17.52,0,4.06-1.79,8-4.23,11.25a68.44,68.44,0,0,1-8.47,8.81c-6.15,5.88-12,12.27-16,19.77s-6.11,16.24-4.53,24.61c1.06,5.54,3.93,11,8.75,13.92,5.23,3.2,12.24,2.94,17.57-.12a21.19,21.19,0,0,0,7.76-8c2.61-4.67,3.52-10.16,3.85-15.43a4.22,4.22,0,0,0-.28-2.22,4.3,4.3,0,0,0-1.72-1.53c-3.89-2.33-8.07-4.31-11.29-7.51s-5.27-8-3.72-12.28a11.22,11.22,0,0,1,6.13-6,26.31,26.31,0,0,1,8.63-1.82c1.41-.1,3-.27,3.85-1.4.06-.08.11-.17.16-.25a2.2,2.2,0,0,0,.17.25c.84,1.11,2.44,1.28,3.84,1.4a26.31,26.31,0,0,1,8.63,1.82,11.19,11.19,0,0,1,6.13,6c1.55,4.22-.51,9.09-3.71,12.28s-7.38,5.18-11.29,7.51a3.24,3.24,0,0,0-2,3.75c.31,5.27,1.24,10.76,3.85,15.43a21.19,21.19,0,0,0,7.76,8c5.33,3.06,12.33,3.32,17.58.12,4.82-2.94,7.68-8.38,8.73-13.92C333.05,96.26,330.93,87.51,326.93,80Z"/><path class="cls-13" d="M348.06,232.14l.29-68.86S300.55,200.58,348.06,232.14Z"/><path class="cls-13" d="M233.7,230.21,235,161.35S281.92,199.79,233.7,230.21Z"/><path class="cls-13" d="M271,56.26c2.49,0,4.52-3.69,4.52-8.25s-2-8.25-4.52-8.25-4.53,3.7-4.53,8.25S268.47,56.26,271,56.26Z"/><path class="cls-13" d="M313,56.26c2.5,0,4.52-3.69,4.52-8.25s-2-8.25-4.52-8.25-4.52,3.7-4.52,8.25S310.54,56.26,313,56.26Z"/><path class="cls-13" d="M341.35,26.53s32.71,12.13,29.4,39.53c0,0-13.46,20.84-8.69,32.41,0,0,9.37,29.58-16.82,37,0,0-19,6.78-6.71-17.92C338.53,117.55,345.19,61.47,341.35,26.53Z"/><path class="cls-13" d="M241.49,26.53s-32.71,12.13-29.4,39.53c0,0,13.45,20.84,8.68,32.41,0,0-9.35,29.58,16.83,37,0,0,19,6.78,6.7-17.92C244.3,117.55,237.65,61.47,241.49,26.53Z"/><path class="cls-16" d="M302.7,72.86c-16.44,3.67-9.73,12-9.73,23.75,0,13.36,8.9,24.2,19.89,24.2,8.14,0,15.15-6,18.21-14.5"/><path class="cls-16" d="M277.19,73.73c9.34,2,13.41,11,13.41,22.88,0,13.36-8.9,24.2-19.89,24.2-8.26,0-15.35-6.13-18.34-14.87"/><path class="cls-2" d="M76.54,257c0,15.76,26.86,28.53,60,28.53,25.94,0,48-7.83,56.41-18.79l-62.75,4.52Z"/><path class="cls-17" d="M184.33,255.4a8.24,8.24,0,0,0-4.71.41c-9.48,3.74-26.07,6.22-45,6.22-29.46,0-53.34-6-53.34-13.47,0-6.58,18.7-12.06,43.41-13.23l1.7-9c-33.9,2.1-59.65,12.59-59.65,25.2,0,14.14,32.32,25.6,72.19,25.6,17.46,0,33.48-2.2,46-5.86,8.18-2.4,7.74-14.12-.6-15.86Z"/><path class="cls-4" d="M156,260.91l25.86-5.64s6.78.72,8,4.31a9.18,9.18,0,0,1-2.25,9.9S186,255.27,156,260.91Z"/><path class="cls-5" d="M184.33,255.4a8.24,8.24,0,0,0-4.71.41c-9.48,3.74-26.07,6.22-45,6.22-29.46,0-53.34-6-53.34-13.47,0-6.58,18.7-12.06,43.41-13.23l1.7-9c-33.9,2.1-59.65,12.59-59.65,25.2,0,14.14,32.32,25.6,72.19,25.6,17.46,0,33.48-2.2,46-5.86,8.18-2.4,7.74-14.12-.6-15.86Z"/><path class="cls-17" d="M179.29,66.19a94.52,94.52,0,0,0-56.08-.07c-5.2-12.25-12.32-22.2-19.85-28.4a2.45,2.45,0,0,0-3.7.72C84.73,65.41,78,96.28,80.88,130,83.48,167.55,98,208.91,111.7,251.6h79.11c13.79-42.69,28.12-83.57,30.8-120.68C224.56,97,217.79,66,202.42,38.78a2.45,2.45,0,0,0-3.71-.68C191.33,44.33,184.38,54.16,179.29,66.19Z"/><path class="cls-4" d="M157.81,116.87c0,2-3,3.63-6.66,3.63s-6.67-1.63-6.67-3.63l6.76-1.51Z"/><path class="cls-4" d="M178.76,250.84a41.43,41.43,0,0,1,.81-7.81c7.09-31.61,2.43-41.35,2.43-41.35L167,251Z"/><path class="cls-4" d="M122.45,250.84a41.93,41.93,0,0,0-.8-7.81c-7.1-31.61-2.44-41.35-2.44-41.35l15,49.28Z"/><path class="cls-5" d="M179.29,66.19a94.52,94.52,0,0,0-56.08-.07c-5.2-12.25-12.32-22.2-19.85-28.4a2.45,2.45,0,0,0-3.7.72C84.73,65.41,78,96.28,80.88,130,83.48,167.55,98,208.91,111.7,251.6h79.11c13.79-42.69,28.12-83.57,30.8-120.68C224.56,97,217.79,66,202.42,38.78a2.45,2.45,0,0,0-3.71-.68C191.33,44.33,184.38,54.16,179.29,66.19Z"/><circle cx="128.8" cy="87.71" r="4.31"/><circle cx="173.52" cy="87.71" r="4.31"/><path d="M154.76,102.21a35.49,35.49,0,0,0-7.14,0c-1.1.11-1.51,1.24-.64,1.81s1.49,1,2.23,1.53a3.68,3.68,0,0,0,4,0c.74-.53,1.49-1,2.23-1.53S155.86,102.32,154.76,102.21Z"/><path class="cls-17" d="M181.89,203.23c-.91,15.9-8.28,32.58-13.38,48.49H151.15l.12-44.77"/><path class="cls-17" d="M120.4,203.23c.92,15.9,9.9,32.58,15,48.49h15.75L151,207"/><path class="cls-6" d="M161.07,116.36a7,7,0,0,1-3.37.85c-3.59,0-6.51-2.63-6.51-5.86"/><path class="cls-6" d="M141.27,116.36a7,7,0,0,0,3.36.85c3.6,0,6.52-2.63,6.52-5.86"/><path class="cls-5" d="M181.89,203.23c-.91,15.9-9.9,32.58-15,48.49H151.15l.12-44.77"/><path class="cls-5" d="M120.4,203.23c.92,15.9,8.28,32.58,13.38,48.49h17.37L151,207"/><path class="cls-4" d="M187.24,72.4c4-12.23,9.79-15.35,9.79-15.35s4.22,1.56,4.22,18.24"/><path class="cls-4" d="M115.05,72.4c-4-12.23-9.79-15.35-9.79-15.35S101,58.61,101,75.29"/><line class="cls-5" x1="141.55" y1="245.27" x2="142.9" y2="251.33"/><line class="cls-5" x1="160.74" y1="245.27" x2="159.39" y2="251.33"/><g class="cls-7"><path class="cls-8" d="M175.33,114a48.88,48.88,0,0,0,19.75,1.08"/><path class="cls-8" d="M173.5,118.12a57,57,0,0,0,18,7.69"/><path class="cls-8" d="M175.33,108.21a44.37,44.37,0,0,0,16.17-4.38"/><path class="cls-8" d="M127,114a48.88,48.88,0,0,1-19.75,1.08"/><path class="cls-8" d="M128.79,118.12a57,57,0,0,1-18,7.69"/><path class="cls-8" d="M127,108.21a44.37,44.37,0,0,1-16.17-4.38"/></g></g></g></g></svg>