<svg xmlns="http://www.w3.org/2000/svg" viewBox="0 0 69.07 88.97"><defs><style>.cls-1{fill:#ffdd95;stroke:#3b3054;stroke-miterlimit:10;stroke-width:7px;}.cls-2{fill:#fff;}</style></defs><g id="Layer_2" data-name="Layer 2"><g id="Layer_1-2" data-name="Layer 1"><path class="cls-1" d="M65.57,33.63c0,17.26-31,50.23-31,50.23s-31-33.09-31-50.23a31,31,0,0,1,62.07,0Z"/><path class="cls-2" d="M25.65,21.58h.2c2.83,0,4,2.32,4,7v3.12h.17a43,43,0,0,1,6-.4h.39a39,39,0,0,1,4.25.2l-.77-5.66v-.73q.6-3.48,3.51-3.48H44c2.83,0,4.27,3,4.27,8.91,0,13.12-.59,19.79-1.75,19.79a4.19,4.19,0,0,1-2.83,1.16h-.25c-2.46-.51-3.68-1.61-3.68-3.28s.2-4.92.57-8.71a20.3,20.3,0,0,0-5.21-.56,36.75,36.75,0,0,0-5.43.56q-.17,6-.17,8.32c-.34,2.82-1.69,4.44-4.07,4.44-2.57-.57-3.87-1.79-3.87-3.77q.59-14.13.59-18.15a34.17,34.17,0,0,0-.39-4.64C22.26,22.93,23.53,21.58,25.65,21.58Z"/></g></g></svg>