<svg xmlns="http://www.w3.org/2000/svg" viewBox="0 0 66.02 85.03"><defs><style>.cls-1{fill:#91d2c6;stroke:#3b3054;stroke-miterlimit:10;stroke-width:7px;}.cls-2{fill:#fff;}</style></defs><g id="Layer_2" data-name="Layer 2"><g id="Layer_1-2" data-name="Layer 1"><path class="cls-1" d="M62.52,32.15C62.52,48.57,33,79.92,33,79.92S3.5,48.46,3.5,32.15a29.52,29.52,0,0,1,59,0Z"/><path class="cls-2" d="M39.37,53.35c2.14,0,3.77-.73,4.57-2.57.85-2,1.07-4.26-.41-6a12.62,12.62,0,0,1-2.57-5,7.57,7.57,0,0,0-8.05-5.66,8.36,8.36,0,0,0-7.11,7.46,2.45,2.45,0,0,1-.22,1,2.51,2.51,0,0,1-.64.84,11.52,11.52,0,0,0-1.22,1.2A5.7,5.7,0,0,0,23,51.1a5,5,0,0,0,5.63,2.06,13.44,13.44,0,0,0,1.51-.4,9.39,9.39,0,0,1,6.15,0A8.08,8.08,0,0,0,39.37,53.35ZM20.92,24.55a9.13,9.13,0,0,0,3.56,6.89,4.47,4.47,0,0,0,4.93.84A4.36,4.36,0,0,0,31.73,28a9.29,9.29,0,0,0-3.92-7.45A4.36,4.36,0,0,0,23,20.1C21.36,21,21,22.53,20.92,24.55ZM42,36.49c0,2.1.32,3.73,2,4.64a4.37,4.37,0,0,0,4.85-.47,8.77,8.77,0,0,0,3.89-7.43c0-1.72-.49-3.34-2.22-4.18a4.41,4.41,0,0,0-4.82.7A8.78,8.78,0,0,0,42,36.49Zm-28.8-3.07a9.2,9.2,0,0,0,1.15,4.23,9,9,0,0,0,3,3.2c3,1.88,6.08.47,6.49-3.06a8.56,8.56,0,0,0-3.63-8.07,4.31,4.31,0,0,0-4.81-.65C13.74,29.94,13.24,31.59,13.24,33.42ZM45,25.29c0-2.69-.26-4.37-2-5.28s-3.54-.36-5,.82a8.84,8.84,0,0,0-3.54,7.62c.16,3.44,3.11,5.2,6.15,3.58A8.07,8.07,0,0,0,45,25.29Z"/><path class="cls-2" d="M39.37,53.35a8.49,8.49,0,0,1-3-.57,9.39,9.39,0,0,0-6.15,0,13.61,13.61,0,0,1-1.52.4A5,5,0,0,1,23,51.12a5.68,5.68,0,0,1,.68-6.42,10,10,0,0,1,1.22-1.22,2.41,2.41,0,0,0,.86-1.87,8.36,8.36,0,0,1,7.1-7.46A7.58,7.58,0,0,1,41,39.81a12.27,12.27,0,0,0,2.57,5c1.47,1.73,1.27,4,.4,6C43.14,52.62,41.51,53.39,39.37,53.35Z"/><path class="cls-2" d="M20.92,24.55c0-2,.44-3.59,2-4.45a4.37,4.37,0,0,1,4.85.42A9.31,9.31,0,0,1,31.73,28a4.39,4.39,0,0,1-2.32,4.31,4.47,4.47,0,0,1-4.93-.84A9.13,9.13,0,0,1,20.92,24.55Z"/><path class="cls-2" d="M42,36.49a8.82,8.82,0,0,1,3.71-6.75,4.41,4.41,0,0,1,4.82-.69c1.75.85,2.23,2.46,2.22,4.18a8.79,8.79,0,0,1-3.89,7.43,4.38,4.38,0,0,1-4.85.47C42.35,40.23,42,38.59,42,36.49Z"/><path class="cls-2" d="M13.24,33.42c0-1.83.47-3.46,2.19-4.35a4.27,4.27,0,0,1,4.81.65,8.54,8.54,0,0,1,3.63,8.07c-.41,3.53-3.45,4.94-6.49,3.06a9,9,0,0,1-3-3.2,9.2,9.2,0,0,1-1.15-4.23Z"/><path class="cls-2" d="M45,25.29A8,8,0,0,1,40.51,32c-3,1.63-6-.13-6.15-3.56a8.82,8.82,0,0,1,3.54-7.62c1.49-1.18,3.18-1.75,5-.81S45,22.61,45,25.29Z"/></g></g></svg>