<?xml version="1.0" standalone="no"?>
<!DOCTYPE svg PUBLIC "-//W3C//DTD SVG 20010904//EN"
 "http://www.w3.org/TR/2001/REC-SVG-20010904/DTD/svg10.dtd">
<svg version="1.0" xmlns="http://www.w3.org/2000/svg"
 width="92.000000pt" height="92.000000pt" viewBox="0 0 92.000000 92.000000"
 preserveAspectRatio="xMidYMid meet">
<metadata>
Created by potrace 1.14, written by Peter Selinger 2001-2017
</metadata>
<g transform="translate(0.000000,92.000000) scale(0.100000,-0.100000)"
fill="#000000" stroke="none">
<path d="M252 913 c-7 -3 -19 -18 -27 -33 -61 -118 74 -282 160 -196 73 73 16
237 -82 235 -21 0 -44 -3 -51 -6z"/>
<path d="M540 892 c-98 -99 -30 -281 83 -220 85 45 104 190 33 240 -6 4 -28 8
-49 8 -29 0 -46 -7 -67 -28z"/>
<path d="M83 749 c-53 -19 -68 -91 -33 -159 30 -59 73 -84 137 -81 48 2 72 85
43 147 -31 69 -98 111 -147 93z"/>
<path d="M762 738 c-85 -41 -116 -184 -49 -220 77 -41 177 46 173 149 -3 75
-56 105 -124 71z"/>
<path d="M420 653 c-32 -12 -312 -305 -330 -346 -64 -140 46 -306 203 -307 53
0 111 20 144 52 l22 20 23 -22 c56 -52 175 -67 246 -31 106 55 151 181 103
287 -18 39 -265 299 -320 336 -26 18 -62 22 -91 11z"/>
</g>
</svg>
